<svg xmlns="http://www.w3.org/2000/svg" xmlns:xlink="http://www.w3.org/1999/xlink" width="2350" zoomAndPan="magnify" viewBox="0 0 1762.5 352.49999" height="470" preserveAspectRatio="xMidYMid meet" version="1.0"><defs><g/></defs><g fill="#933a1f" fill-opacity="1"><g transform="translate(229.647102, 275.914257)"><g><path d="M 194.972656 2.574219 C 194.972656 2.574219 181.460938 21.234375 154.113281 21.234375 C 126.765625 21.234375 103.601562 3.539062 103.601562 3.539062 C 157.652344 3.539062 201.410156 -26.703125 201.410156 -112.609375 C 201.410156 -196.90625 157.652344 -229.078125 103.601562 -229.078125 C 49.546875 -229.078125 6.113281 -198.191406 6.113281 -112.609375 C 6.113281 -46.652344 31.53125 -13.511719 67.886719 -1.609375 C 48.90625 2.894531 37 19.625 35.714844 33.140625 C 46.972656 23.164062 58.878906 19.625 71.425781 21.878906 C 97.808594 29.601562 144.140625 59.199219 178.886719 59.199219 C 197.871094 59.199219 214.921875 51.15625 229.722656 35.714844 Z M 48.582031 -102.957031 C 42.792969 -124.191406 39.894531 -143.816406 39.894531 -159.90625 C 39.253906 -184.355469 46.332031 -196.261719 60.488281 -196.582031 C 154.433594 -200.121094 164.085938 -127.410156 164.085938 -56.949219 C 164.085938 -36.355469 157.652344 -21.234375 138.027344 -21.234375 C 80.433594 -21.234375 60.164062 -59.84375 48.582031 -102.957031 Z M 48.582031 -102.957031 "/></g></g></g><g fill="#933a1f" fill-opacity="1"><g transform="translate(452.28149, 275.914257)"><g><path d="M 33.140625 -178.566406 L 62.417969 -210.417969 C 62.417969 -210.417969 44.722656 -219.425781 33.78125 -240.019531 L 3.539062 -210.738281 C 3.539062 -210.738281 13.191406 -189.828125 33.140625 -178.566406 Z M 66.277344 0.320312 C 54.375 -18.660156 54.050781 -36.035156 54.050781 -37.644531 L 53.730469 -164.410156 L 4.183594 -141.886719 C 16.410156 -131.914062 16.410156 -113.253906 16.410156 -113.253906 L 16.410156 -36.679688 C 16.410156 -32.175781 15.765625 -13.511719 4.183594 0.320312 Z M 66.277344 0.320312 "/></g></g></g><g fill="#933a1f" fill-opacity="1"><g transform="translate(537.861423, 275.914257)"><g><path d="M 56.304688 -199.15625 C 56.304688 -210.738281 67.242188 -212.027344 75.289062 -212.027344 C 93.949219 -212.027344 99.097656 -195.296875 99.097656 -195.296875 L 131.269531 -235.515625 C 128.050781 -241.304688 114.859375 -246.773438 101.992188 -246.773438 C 89.445312 -246.773438 76.253906 -243.234375 48.90625 -215.886719 C 25.097656 -192.078125 19.304688 -180.175781 19.304688 -168.59375 C 19.304688 -165.695312 19.304688 -162.800781 19.304688 -159.90625 L 8.367188 -159.90625 L 2.574219 -143.816406 L 19.304688 -143.816406 L 20.589844 -37.644531 C 20.589844 -37.644531 20.589844 -16.730469 8.367188 0.320312 L 70.78125 0.320312 C 58.234375 -17.695312 56.304688 -37.644531 56.304688 -37.644531 C 56.304688 -37.644531 56.625 -94.914062 56.625 -143.816406 L 95.878906 -143.816406 L 101.667969 -159.90625 L 56.625 -159.90625 C 56.304688 -172.773438 56.304688 -185.964844 56.304688 -199.15625 Z M 56.304688 -199.15625 "/></g></g></g><g fill="#933a1f" fill-opacity="1"><g transform="translate(653.361705, 275.914257)"><g><path d="M 33.140625 -178.566406 L 62.417969 -210.417969 C 62.417969 -210.417969 44.722656 -219.425781 33.78125 -240.019531 L 3.539062 -210.738281 C 3.539062 -210.738281 13.191406 -189.828125 33.140625 -178.566406 Z M 66.277344 0.320312 C 54.375 -18.660156 54.050781 -36.035156 54.050781 -37.644531 L 53.730469 -164.410156 L 4.183594 -141.886719 C 16.410156 -131.914062 16.410156 -113.253906 16.410156 -113.253906 L 16.410156 -36.679688 C 16.410156 -32.175781 15.765625 -13.511719 4.183594 0.320312 Z M 66.277344 0.320312 "/></g></g></g><g fill="#933a1f" fill-opacity="1"><g transform="translate(763.70686, 97.272051)"><g><path d="M 34.246094 -54.695312 C 36.203125 -52.347656 36.59375 -50.152344 35.027344 -47.175781 C 33.382812 -44.273438 25.859375 -30.011719 25.859375 -30.011719 C 21.941406 -36.988281 18.335938 -44.117188 16.613281 -47.332031 C 14.96875 -50.621094 15.28125 -52.03125 17.160156 -54.695312 L -1.253906 -54.695312 C 1.644531 -52.03125 4.152344 -48.820312 5.796875 -46.078125 C 7.445312 -43.257812 18.570312 -24.292969 18.570312 -24.292969 L 18.570312 -12.222656 C 18.570312 -6.113281 18.492188 -3.210938 15.515625 -0.15625 L 32.050781 -0.15625 C 29.855469 -3.527344 29.152344 -5.957031 29.152344 -11.675781 L 29.152344 -25.152344 C 29.152344 -25.152344 37.691406 -40.433594 40.121094 -44.429688 C 42.550781 -48.507812 45.136719 -51.5625 48.585938 -54.695312 Z M 34.246094 -54.695312 "/></g></g></g><g fill="#933a1f" fill-opacity="1"><g transform="translate(811.11607, 97.272051)"><g><path d="M 20.140625 -40.042969 C 9.875 -40.042969 1.488281 -34.636719 1.488281 -19.433594 C 1.488281 -4.230469 9.875 1.253906 20.140625 1.253906 C 30.324219 1.253906 38.789062 -4.152344 38.789062 -19.042969 C 38.789062 -30.796875 32.519531 -40.042969 20.140625 -40.042969 Z M 29.855469 -8.304688 C 29.855469 -5.171875 28.601562 -3.683594 26.644531 -3.683594 C 20.765625 -3.683594 15.90625 -5.957031 13.398438 -11.597656 C 10.578125 -17.632812 9.71875 -23.902344 9.71875 -30.484375 C 9.71875 -32.992188 10.65625 -34.324219 13.007812 -34.324219 C 18.886719 -34.324219 24.214844 -32.832031 26.957031 -27.425781 C 30.011719 -21.394531 29.855469 -14.96875 29.855469 -8.304688 Z M 29.855469 -8.304688 "/></g></g></g><g fill="#933a1f" fill-opacity="1"><g transform="translate(851.472672, 97.272051)"><g><path d="M 38.710938 -35.183594 L 38.710938 -44.429688 C 32.441406 -44.429688 29.152344 -40.199219 27.738281 -37.300781 C 25.234375 -39.101562 22.019531 -40.042969 18.414062 -40.042969 C 9.558594 -40.042969 2.273438 -33.695312 2.273438 -27.113281 C 2.273438 -21.316406 5.328125 -16.847656 9.875 -14.652344 C 6.503906 -13.636719 1.253906 -10.734375 1.253906 -7.445312 C 1.253906 -5.015625 4.464844 -2.664062 13.792969 -1.878906 C 31.894531 -0.234375 33.929688 3.371094 31.894531 5.40625 C 28.289062 9.089844 16.222656 8.382812 12.066406 1.253906 L 3.210938 9.71875 C 5.5625 12.851562 9.71875 15.359375 17.945312 15.359375 C 26.328125 15.359375 36.359375 6.816406 38.164062 0.234375 C 40.511719 -8.382812 32.914062 -7.835938 23.507812 -7.835938 C 14.339844 -7.835938 11.128906 -9.480469 11.128906 -11.597656 C 11.128906 -12.539062 11.597656 -13.320312 11.910156 -13.871094 C 13.636719 -13.242188 15.515625 -13.007812 17.632812 -13.007812 C 26.566406 -13.007812 33.695312 -16.378906 33.851562 -26.09375 C 33.851562 -29.855469 32.285156 -33.226562 29.699219 -35.734375 C 32.753906 -36.832031 35.8125 -36.671875 38.710938 -35.183594 Z M 22.960938 -17.789062 C 17.238281 -17.789062 13.398438 -19.355469 11.363281 -25.78125 C 10.578125 -28.132812 10.109375 -30.011719 10.109375 -31.421875 C 10.109375 -33.851562 11.363281 -35.105469 14.183594 -35.105469 C 19.746094 -35.105469 22.648438 -32.519531 24.683594 -25.9375 C 25.46875 -23.507812 25.859375 -21.707031 25.859375 -20.375 C 25.859375 -18.570312 24.996094 -17.789062 22.960938 -17.789062 Z M 22.960938 -17.789062 "/></g></g></g><g fill="#933a1f" fill-opacity="1"><g transform="translate(891.045658, 97.272051)"><g><path d="M 33.382812 -10.265625 C 33.382812 -16.535156 33.382812 -21.707031 33.382812 -27.976562 C 33.382812 -29.464844 33.226562 -35.261719 22.410156 -39.496094 C 16.613281 -41.765625 10.109375 -41.140625 5.640625 -36.75 L 9.480469 -27.191406 C 11.675781 -31.738281 16.222656 -35.578125 20.921875 -35.578125 C 23.351562 -35.578125 23.902344 -29.230469 23.742188 -27.503906 C 18.570312 -24.996094 9.796875 -20.609375 2.976562 -17.160156 C 1.253906 -16.222656 0.546875 -14.652344 0.546875 -13.007812 C 0.546875 -7.445312 8.070312 0.546875 12.851562 0.546875 C 17.160156 0.546875 22.648438 -4.9375 24.214844 -6.503906 L 24.214844 -5.171875 C 24.214844 -0.707031 27.660156 0.078125 27.660156 0.078125 L 36.203125 -3.527344 C 33.460938 -5.71875 33.382812 -9.558594 33.382812 -10.265625 Z M 17.394531 -7.992188 C 16.222656 -7.992188 15.125 -8.070312 14.105469 -8.304688 C 12.222656 -8.699219 10.734375 -11.050781 10.734375 -13.476562 C 10.734375 -15.28125 11.597656 -17.160156 13.714844 -18.492188 C 20.0625 -22.410156 22.648438 -23.980469 23.820312 -24.683594 L 24.214844 -9.011719 C 22.726562 -8.382812 19.980469 -7.992188 17.394531 -7.992188 Z M 17.394531 -7.992188 "/></g></g></g><g fill="#933a1f" fill-opacity="1"><g transform="translate(763.70686, 187.062055)"><g><path d="M 35.5 -54.773438 C 37.457031 -51.484375 38.242188 -48.898438 38.242188 -43.804688 L 38.242188 -17.082031 L 12.066406 -54.773438 L 1.332031 -54.773438 C 3.210938 -51.484375 4.074219 -48.898438 4.074219 -43.804688 L 4.074219 -11.128906 C 4.074219 -6.035156 3.210938 -3.449219 1.332031 -0.15625 L 13.398438 -0.15625 C 11.519531 -3.449219 10.578125 -6.035156 10.578125 -11.128906 L 10.578125 -37.378906 L 34.007812 -4.859375 C 36.515625 -0.863281 40.199219 1.019531 44.902344 0.863281 L 44.902344 -44.273438 C 44.902344 -48.820312 45.761719 -51.484375 47.644531 -54.773438 Z M 35.5 -54.773438 "/></g></g></g><g fill="#933a1f" fill-opacity="1"><g transform="translate(812.604956, 187.062055)"><g><path d="M 38.476562 -4.230469 C 35.5 -6.894531 35.5 -11.285156 35.5 -11.285156 L 35.5 -40.042969 L 23.429688 -34.558594 C 26.40625 -31.894531 26.40625 -27.503906 26.40625 -27.503906 L 26.40625 -8.304688 C 23.664062 -7.210938 21.628906 -6.816406 19.824219 -6.816406 C 12.144531 -6.816406 12.144531 -13.871094 12.144531 -13.871094 L 12.144531 -40.042969 L 0.863281 -34.871094 C 3.761719 -32.285156 3.761719 -27.820312 3.761719 -27.820312 L 3.761719 -8.933594 C 3.761719 -5.171875 3.996094 1.253906 12.773438 1.253906 L 12.929688 1.253906 C 18.570312 1.175781 24.996094 -4.625 26.566406 -6.113281 L 26.566406 0.707031 C 26.566406 0.707031 38.476562 -4.152344 38.476562 -4.230469 Z M 38.476562 -4.230469 "/></g></g></g><g fill="#933a1f" fill-opacity="1"><g transform="translate(852.099574, 187.062055)"><g><path d="M 13.714844 -8.777344 C 13.714844 -9.953125 13.714844 -35.027344 13.714844 -35.027344 L 21.394531 -35.027344 L 22.882812 -38.945312 L 13.558594 -38.945312 L 13.558594 -48.191406 L 0.785156 -35.027344 L 4.546875 -35.027344 C 4.546875 -35.027344 3.683594 -12.539062 3.605469 -9.089844 C 3.527344 -5.5625 6.113281 1.175781 14.183594 1.175781 C 24.996094 1.175781 28.054688 -5.09375 28.054688 -5.09375 C 25.9375 -4.230469 13.714844 -2.507812 13.714844 -8.777344 Z M 13.714844 -8.777344 "/></g></g></g><g fill="#933a1f" fill-opacity="1"><g transform="translate(879.996558, 187.062055)"><g><path d="M 25.546875 -40.511719 C 19.433594 -40.511719 14.652344 -35.5 13.007812 -33.617188 L 13.007812 -40.671875 L 1.019531 -35.183594 C 3.761719 -32.914062 3.917969 -28.210938 3.917969 -28.210938 L 3.917969 -9.011719 C 3.917969 -7.992188 3.761719 -3.371094 1.019531 0 L 16.0625 0 C 13.164062 -4.625 13.085938 -8.855469 13.085938 -9.246094 L 13.007812 -31.03125 C 14.890625 -31.816406 16.535156 -32.207031 17.867188 -32.207031 C 22.726562 -32.207031 24.605469 -28.054688 24.605469 -28.054688 L 32.285156 -37.613281 C 32.285156 -37.613281 30.640625 -40.511719 25.546875 -40.511719 Z M 25.546875 -40.511719 "/></g></g></g><g fill="#933a1f" fill-opacity="1"><g transform="translate(911.968402, 187.062055)"><g><path d="M 8.070312 -43.492188 L 15.203125 -51.25 C 15.203125 -51.25 10.890625 -53.441406 8.226562 -58.457031 L 0.863281 -51.328125 C 0.863281 -51.328125 3.210938 -46.234375 8.070312 -43.492188 Z M 16.144531 0.078125 C 13.242188 -4.546875 13.164062 -8.777344 13.164062 -9.167969 L 13.085938 -40.042969 L 1.019531 -34.558594 C 3.996094 -32.128906 3.996094 -27.582031 3.996094 -27.582031 L 3.996094 -8.933594 C 3.996094 -7.835938 3.839844 -3.292969 1.019531 0.078125 Z M 16.144531 0.078125 "/></g></g></g><g fill="#933a1f" fill-opacity="1"><g transform="translate(929.12976, 187.062055)"><g><path d="M 13.714844 -8.777344 C 13.714844 -9.953125 13.714844 -35.027344 13.714844 -35.027344 L 21.394531 -35.027344 L 22.882812 -38.945312 L 13.558594 -38.945312 L 13.558594 -48.191406 L 0.785156 -35.027344 L 4.546875 -35.027344 C 4.546875 -35.027344 3.683594 -12.539062 3.605469 -9.089844 C 3.527344 -5.5625 6.113281 1.175781 14.183594 1.175781 C 24.996094 1.175781 28.054688 -5.09375 28.054688 -5.09375 C 25.9375 -4.230469 13.714844 -2.507812 13.714844 -8.777344 Z M 13.714844 -8.777344 "/></g></g></g><g fill="#933a1f" fill-opacity="1"><g transform="translate(957.026744, 187.062055)"><g><path d="M 8.070312 -43.492188 L 15.203125 -51.25 C 15.203125 -51.25 10.890625 -53.441406 8.226562 -58.457031 L 0.863281 -51.328125 C 0.863281 -51.328125 3.210938 -46.234375 8.070312 -43.492188 Z M 16.144531 0.078125 C 13.242188 -4.546875 13.164062 -8.777344 13.164062 -9.167969 L 13.085938 -40.042969 L 1.019531 -34.558594 C 3.996094 -32.128906 3.996094 -27.582031 3.996094 -27.582031 L 3.996094 -8.933594 C 3.996094 -7.835938 3.839844 -3.292969 1.019531 0.078125 Z M 16.144531 0.078125 "/></g></g></g><g fill="#933a1f" fill-opacity="1"><g transform="translate(974.188101, 187.062055)"><g><path d="M 20.140625 -40.042969 C 9.875 -40.042969 1.488281 -34.636719 1.488281 -19.433594 C 1.488281 -4.230469 9.875 1.253906 20.140625 1.253906 C 30.324219 1.253906 38.789062 -4.152344 38.789062 -19.042969 C 38.789062 -30.796875 32.519531 -40.042969 20.140625 -40.042969 Z M 29.855469 -8.304688 C 29.855469 -5.171875 28.601562 -3.683594 26.644531 -3.683594 C 20.765625 -3.683594 15.90625 -5.957031 13.398438 -11.597656 C 10.578125 -17.632812 9.71875 -23.902344 9.71875 -30.484375 C 9.71875 -32.992188 10.65625 -34.324219 13.007812 -34.324219 C 18.886719 -34.324219 24.214844 -32.832031 26.957031 -27.425781 C 30.011719 -21.394531 29.855469 -14.96875 29.855469 -8.304688 Z M 29.855469 -8.304688 "/></g></g></g><g fill="#933a1f" fill-opacity="1"><g transform="translate(1014.544703, 187.062055)"><g><path d="M 39.417969 0 C 36.75 -5.171875 36.515625 -8.148438 36.515625 -9.011719 C 36.515625 -16.144531 36.4375 -23.273438 36.4375 -30.324219 C 36.4375 -37.457031 32.675781 -40.511719 27.269531 -40.511719 C 21.941406 -40.511719 14.574219 -34.558594 12.929688 -33.148438 L 12.929688 -40.511719 C 12.929688 -40.511719 1.097656 -35.183594 1.097656 -35.027344 C 3.996094 -32.363281 3.996094 -28.054688 3.996094 -28.054688 C 3.996094 -21.707031 3.996094 -15.359375 3.996094 -9.011719 C 3.996094 -7.992188 3.839844 -3.371094 1.097656 0 L 16.144531 0 C 13.242188 -4.625 13.164062 -8.855469 13.164062 -9.246094 L 13.007812 -31.03125 C 15.59375 -32.128906 17.710938 -32.597656 19.511719 -32.597656 C 28.132812 -32.597656 28.132812 -26.40625 28.132812 -26.40625 C 28.132812 -20.765625 28.132812 -15.046875 28.132812 -9.324219 C 28.132812 -9.011719 27.976562 -6.894531 25.234375 0 Z M 39.417969 0 "/></g></g></g><g fill="#933a1f" fill-opacity="1"><g transform="translate(763.70686, 276.852059)"><g><path d="M 56.265625 -45.761719 C 56.265625 -45.761719 56.265625 -50.152344 59.164062 -54.695312 L 46.703125 -54.695312 L 32.128906 -13.792969 L 12.066406 -54.695312 L 1.332031 -54.695312 C 3.371094 -51.328125 4.152344 -48.820312 4.152344 -43.726562 L 4.152344 -11.128906 C 3.917969 -5.878906 3.605469 -3.761719 1.332031 -0.15625 L 13.714844 -0.15625 C 11.441406 -3.605469 10.65625 -6.269531 10.65625 -11.128906 L 10.65625 -35.734375 L 23.039062 -5.484375 C 24.683594 -2.039062 27.820312 0.46875 32.285156 0.234375 L 46.703125 -37.222656 L 46.703125 -9.089844 C 46.703125 -5.957031 45.683594 -2.976562 43.726562 -0.15625 L 59.164062 -0.15625 C 56.265625 -4.703125 56.265625 -9.089844 56.265625 -9.089844 Z M 56.265625 -45.761719 "/></g></g></g><g fill="#933a1f" fill-opacity="1"><g transform="translate(824.20259, 276.852059)"><g><path d="M 8.070312 -43.492188 L 15.203125 -51.25 C 15.203125 -51.25 10.890625 -53.441406 8.226562 -58.457031 L 0.863281 -51.328125 C 0.863281 -51.328125 3.210938 -46.234375 8.070312 -43.492188 Z M 16.144531 0.078125 C 13.242188 -4.546875 13.164062 -8.777344 13.164062 -9.167969 L 13.085938 -40.042969 L 1.019531 -34.558594 C 3.996094 -32.128906 3.996094 -27.582031 3.996094 -27.582031 L 3.996094 -8.933594 C 3.996094 -7.835938 3.839844 -3.292969 1.019531 0.078125 Z M 16.144531 0.078125 "/></g></g></g><g fill="#933a1f" fill-opacity="1"><g transform="translate(841.363948, 276.852059)"><g><path d="M 39.417969 0 C 36.75 -5.171875 36.515625 -8.148438 36.515625 -9.011719 C 36.515625 -16.144531 36.4375 -23.273438 36.4375 -30.324219 C 36.4375 -37.457031 32.675781 -40.511719 27.269531 -40.511719 C 21.941406 -40.511719 14.574219 -34.558594 12.929688 -33.148438 L 12.929688 -40.511719 C 12.929688 -40.511719 1.097656 -35.183594 1.097656 -35.027344 C 3.996094 -32.363281 3.996094 -28.054688 3.996094 -28.054688 C 3.996094 -21.707031 3.996094 -15.359375 3.996094 -9.011719 C 3.996094 -7.992188 3.839844 -3.371094 1.097656 0 L 16.144531 0 C 13.242188 -4.625 13.164062 -8.855469 13.164062 -9.246094 L 13.007812 -31.03125 C 15.59375 -32.128906 17.710938 -32.597656 19.511719 -32.597656 C 28.132812 -32.597656 28.132812 -26.40625 28.132812 -26.40625 C 28.132812 -20.765625 28.132812 -15.046875 28.132812 -9.324219 C 28.132812 -9.011719 27.976562 -6.894531 25.234375 0 Z M 39.417969 0 "/></g></g></g><g fill="#933a1f" fill-opacity="1"><g transform="translate(881.72055, 276.852059)"><g><path d="M 38.242188 -4.074219 C 35.261719 -6.738281 35.261719 -11.128906 35.261719 -11.128906 L 35.261719 -59.710938 L 23.273438 -54.148438 C 26.25 -51.484375 26.25 -47.09375 26.25 -47.09375 L 26.25 -37.613281 C 22.804688 -39.179688 19.667969 -39.886719 16.925781 -39.886719 C 6.816406 -39.886719 1.566406 -30.5625 1.566406 -18.730469 C 1.566406 -9.636719 5.40625 1.175781 13.085938 1.175781 C 17.789062 1.175781 24.605469 -4.386719 26.40625 -5.878906 L 26.40625 0.863281 C 26.40625 0.863281 38.242188 -3.996094 38.242188 -4.074219 Z M 26.328125 -8.304688 C 24.996094 -7.679688 22.488281 -7.050781 19.902344 -7.050781 C 17.476562 -7.050781 15.046875 -7.601562 13.636719 -9.324219 C 12.144531 -11.285156 11.363281 -16.222656 11.363281 -21.234375 C 11.363281 -26.800781 12.304688 -32.441406 14.417969 -34.007812 C 17.394531 -36.28125 23.039062 -35.734375 25.234375 -32.128906 C 25.859375 -31.1875 26.328125 -29.699219 26.328125 -28.679688 Z M 26.328125 -8.304688 "/></g></g></g><g fill="#933a1f" fill-opacity="1"><g transform="translate(920.980086, 276.852059)"><g><path d="M 13.714844 -48.507812 C 13.714844 -51.328125 16.378906 -51.640625 18.335938 -51.640625 C 22.882812 -51.640625 24.136719 -47.566406 24.136719 -47.566406 L 31.972656 -57.359375 C 31.1875 -58.773438 27.976562 -60.105469 24.839844 -60.105469 C 21.785156 -60.105469 18.570312 -59.242188 11.910156 -52.582031 C 6.113281 -46.78125 4.703125 -43.882812 4.703125 -41.0625 C 4.703125 -40.355469 4.703125 -39.652344 4.703125 -38.945312 L 2.039062 -38.945312 L 0.625 -35.027344 L 4.703125 -35.027344 L 5.015625 -9.167969 C 5.015625 -9.167969 5.015625 -4.074219 2.039062 0.078125 L 17.238281 0.078125 C 14.183594 -4.308594 13.714844 -9.167969 13.714844 -9.167969 C 13.714844 -9.167969 13.792969 -23.117188 13.792969 -35.027344 L 23.351562 -35.027344 L 24.761719 -38.945312 L 13.792969 -38.945312 C 13.714844 -42.082031 13.714844 -45.292969 13.714844 -48.507812 Z M 13.714844 -48.507812 "/></g></g></g><g fill="#933a1f" fill-opacity="1"><g transform="translate(945.429134, 276.852059)"><g><path d="M 38.476562 -4.230469 C 35.5 -6.894531 35.5 -11.285156 35.5 -11.285156 L 35.5 -40.042969 L 23.429688 -34.558594 C 26.40625 -31.894531 26.40625 -27.503906 26.40625 -27.503906 L 26.40625 -8.304688 C 23.664062 -7.210938 21.628906 -6.816406 19.824219 -6.816406 C 12.144531 -6.816406 12.144531 -13.871094 12.144531 -13.871094 L 12.144531 -40.042969 L 0.863281 -34.871094 C 3.761719 -32.285156 3.761719 -27.820312 3.761719 -27.820312 L 3.761719 -8.933594 C 3.761719 -5.171875 3.996094 1.253906 12.773438 1.253906 L 12.929688 1.253906 C 18.570312 1.175781 24.996094 -4.625 26.566406 -6.113281 L 26.566406 0.707031 C 26.566406 0.707031 38.476562 -4.152344 38.476562 -4.230469 Z M 38.476562 -4.230469 "/></g></g></g><g fill="#933a1f" fill-opacity="1"><g transform="translate(984.923752, 276.852059)"><g><path d="M 0.941406 0.078125 L 15.984375 0.078125 C 12.929688 -4.78125 12.773438 -8.382812 12.773438 -9.167969 L 12.773438 -60.339844 C 12.773438 -60.339844 0.941406 -55.011719 0.941406 -54.855469 C 3.839844 -52.1875 3.839844 -47.878906 3.839844 -47.878906 L 3.839844 -9.167969 C 3.839844 -7.835938 3.839844 -3.449219 0.941406 0.078125 Z M 0.941406 0.078125 "/></g></g></g><path fill="#933a1f" d="M 1350.546875 234.542969 C 1350.859375 234.503906 1351.175781 234.503906 1351.488281 234.542969 C 1352.039062 234.132812 1352.589844 233.683594 1353.148438 233.210938 C 1352.917969 233.234375 1352.6875 233.246094 1352.457031 233.246094 C 1351.113281 233.292969 1349.785156 233.152344 1348.480469 232.820312 C 1347.976562 233.347656 1347.457031 233.867188 1346.917969 234.371094 C 1347.722656 234.378906 1348.519531 234.46875 1349.304688 234.644531 C 1349.722656 234.632812 1350.136719 234.597656 1350.546875 234.542969 Z M 1350.546875 234.542969 " fill-opacity="1" fill-rule="nonzero"/><path fill="#933a1f" d="M 1367.59375 218.90625 C 1367.210938 220.25 1366.613281 221.496094 1365.800781 222.636719 C 1374.503906 226.746094 1394.449219 239.207031 1380.394531 262.414062 C 1362.769531 291.550781 1309.890625 292.242188 1309.890625 292.242188 C 1309.890625 292.242188 1271.96875 291.550781 1246.859375 282.746094 C 1246.859375 282.746094 1248.214844 288.84375 1240.757812 286.128906 C 1233.304688 283.414062 1203.46875 269.191406 1198.050781 270.546875 C 1192.628906 271.902344 1176.355469 278.675781 1174.320312 265.804688 C 1174.320312 265.804688 1182.453125 265.804688 1185.164062 264.449219 C 1187.875 263.09375 1191.269531 260.378906 1194.660156 261.734375 C 1194.660156 261.734375 1191.269531 256.992188 1185.84375 259.027344 C 1180.417969 261.0625 1176.355469 264.449219 1172.964844 261.0625 C 1169.574219 257.671875 1171.609375 245.472656 1181.78125 244.117188 C 1191.949219 242.761719 1192.625 248.179688 1192.625 248.179688 C 1192.625 248.179688 1198.722656 233.265625 1211.605469 238.039062 C 1224.484375 242.8125 1244.824219 251.585938 1244.824219 251.585938 C 1244.824219 251.585938 1242.113281 247.523438 1244.824219 246.8125 C 1247.53125 246.105469 1250.25 244.785156 1254.96875 244.785156 C 1259.691406 244.785156 1269.890625 245.460938 1275.308594 252.917969 C 1280.730469 260.375 1267.175781 252.917969 1267.175781 252.917969 C 1267.175781 252.917969 1271.949219 261.722656 1284.117188 263.757812 C 1295.988281 265.738281 1355.320312 270.917969 1352.933594 238.765625 C 1352.644531 239.09375 1352.28125 239.292969 1351.847656 239.363281 C 1351.578125 239.398438 1351.316406 239.417969 1351.046875 239.441406 C 1346.597656 247.53125 1330.882812 266.4375 1283.445312 258.351562 C 1283.445312 258.351562 1276.664062 238.699219 1263.785156 238.699219 C 1250.90625 238.699219 1241.410156 247.511719 1233.273438 244.125 C 1225.140625 240.734375 1206.835938 225.144531 1191.246094 242.089844 C 1191.246094 242.089844 1178.367188 235.992188 1172.261719 248.867188 C 1166.15625 261.742188 1172.261719 263.78125 1172.261719 263.78125 C 1172.261719 263.78125 1169.550781 268.523438 1174.296875 273.265625 C 1179.039062 278.007812 1189.214844 276.65625 1194.636719 275.300781 C 1200.054688 273.945312 1202.769531 273.265625 1213.613281 278.691406 C 1224.460938 284.113281 1239.378906 291.5625 1254.296875 288.175781 C 1254.296875 288.175781 1347.847656 317.316406 1384.460938 266.488281 C 1384.484375 266.476562 1411.058594 237.375 1367.59375 218.90625 Z M 1367.59375 218.90625 " fill-opacity="1" fill-rule="nonzero"/><path fill="#933a1f" d="M 1287.039062 289.671875 C 1286.175781 289.363281 1285.441406 288.863281 1284.835938 288.175781 C 1282.386719 289.480469 1280.371094 290.5625 1279.0625 291.15625 C 1271.902344 294.511719 1272.691406 288.320312 1272.691406 288.320312 C 1248.46875 299.289062 1210.714844 303.285156 1210.714844 303.285156 C 1210.714844 303.285156 1157.976562 307.234375 1137.898438 279.746094 C 1117.824219 252.253906 1152.511719 236.96875 1152.511719 236.96875 C 1152.71875 237.363281 1152.929688 237.746094 1153.144531 238.121094 C 1153.839844 237.128906 1154.734375 236.378906 1155.835938 235.867188 C 1154.796875 235.640625 1153.875 235.179688 1153.066406 234.484375 C 1152.257812 233.792969 1151.664062 232.953125 1151.28125 231.960938 C 1151.382812 232.554688 1151.484375 232.980469 1151.484375 232.980469 C 1103.109375 255.589844 1134.175781 284.15625 1134.175781 284.15625 C 1175.089844 331.570312 1265.738281 294.378906 1265.738281 294.378906 C 1273.949219 295.5 1281.886719 293.441406 1289.078125 290.316406 C 1288.398438 290.113281 1287.722656 289.910156 1287.039062 289.671875 Z M 1287.039062 289.671875 " fill-opacity="1" fill-rule="nonzero"/><path fill="#933a1f" d="M 1523.234375 58.621094 C 1518.742188 54.027344 1508.773438 58.332031 1508.773438 58.332031 C 1508.773438 58.332031 1514.277344 39.835938 1508.84375 32.710938 C 1503.414062 25.589844 1498.214844 26.453125 1498.214844 26.453125 C 1498.214844 26.453125 1491.714844 29.121094 1491.699219 35.523438 C 1491.679688 41.925781 1491.835938 49.371094 1491.835938 49.371094 C 1491.835938 49.371094 1482.964844 31.089844 1473.183594 30.027344 C 1466.507812 29.300781 1464.304688 31.574219 1463.574219 33.082031 C 1463.347656 31.667969 1462.5 28.347656 1459.515625 28 C 1455.710938 27.558594 1450.425781 27.886719 1447.8125 34.71875 C 1446.058594 39.34375 1445.0625 44.128906 1444.828125 49.070312 C 1444.648438 51.238281 1442.539062 64.386719 1442.539062 64.386719 C 1442.539062 64.386719 1437.46875 82.28125 1436.335938 85.132812 C 1435.203125 87.984375 1433.542969 94.125 1434.394531 99.320312 C 1434.433594 99.535156 1434.472656 99.738281 1434.515625 99.949219 L 1434.480469 99.839844 C 1434.480469 99.839844 1427.632812 103.628906 1430.640625 112.203125 C 1433.648438 120.773438 1438.402344 123.734375 1438.402344 123.734375 C 1438.402344 123.734375 1438.402344 123.828125 1438.324219 124.015625 C 1439.882812 125.0625 1441.257812 126.3125 1442.449219 127.765625 C 1443.433594 128.265625 1444.386719 128.820312 1445.3125 129.425781 L 1445.359375 129.425781 C 1445.785156 129.667969 1446.207031 129.921875 1446.625 130.183594 C 1447.46875 130.460938 1448.296875 130.78125 1449.113281 131.148438 C 1450.300781 131.308594 1451.46875 131.554688 1452.617188 131.890625 C 1453.125 131.972656 1453.632812 132.074219 1454.132812 132.191406 C 1454.503906 132.191406 1454.875 132.191406 1455.242188 132.191406 C 1455.242188 132.140625 1455.242188 132.109375 1455.242188 132.109375 C 1455.242188 132.109375 1465.890625 131.964844 1467.898438 127.902344 C 1469.902344 123.839844 1467.402344 118.359375 1467.144531 116.824219 C 1466.886719 115.292969 1469.414062 111.121094 1473.113281 107.839844 C 1476.8125 104.558594 1492.539062 92.925781 1492.539062 92.925781 L 1518.203125 73.78125 C 1518.203125 73.78125 1527.710938 63.222656 1523.234375 58.621094 Z M 1464.667969 43.152344 L 1464.558594 42.496094 C 1464.886719 42.9375 1465.300781 43.273438 1465.796875 43.503906 L 1469.25 45.074219 C 1469.25 45.074219 1475.648438 48.289062 1476.328125 52.441406 C 1477.011719 56.59375 1474.230469 62.394531 1470.242188 64.109375 C 1466.253906 65.828125 1461.140625 67.203125 1460.460938 63.042969 C 1459.78125 58.886719 1461.703125 51.113281 1461.703125 51.113281 Z M 1513.929688 73.484375 C 1500.65625 83.660156 1482.363281 95.722656 1478.121094 99.089844 C 1473.878906 102.453125 1464.066406 111.019531 1464.046875 117.398438 C 1464.046875 117.398438 1460.675781 116.347656 1457.308594 112.101562 C 1453.941406 107.851562 1451.9375 111.910156 1456.347656 115.988281 C 1459.015625 118.453125 1462 120.441406 1465.300781 121.957031 C 1465.300781 121.957031 1467.28125 127.496094 1460.527344 128.609375 C 1453.769531 129.71875 1439.757812 125.625 1435.972656 115.558594 C 1432.1875 105.496094 1433.144531 104.820312 1435.554688 103.371094 C 1436.058594 104.636719 1436.78125 105.757812 1437.726562 106.738281 C 1437.726562 106.738281 1441.007812 110.472656 1442.5 109.71875 C 1443.992188 108.96875 1442.589844 107.035156 1442.589844 107.035156 C 1442.589844 107.035156 1434.296875 101.992188 1437.355469 91.363281 C 1440.417969 80.730469 1446.960938 58.847656 1447.765625 50.71875 C 1448.570312 42.585938 1449.191406 33.417969 1453.179688 31.699219 C 1457.164062 29.980469 1460.199219 28.949219 1461.132812 34.679688 C 1462.070312 40.414062 1457.894531 50.683594 1457.964844 54.40625 C 1458.035156 58.128906 1457.148438 68.9375 1460.527344 69.988281 C 1463.902344 71.039062 1465.199219 69.21875 1465.199219 69.21875 C 1465.199219 69.21875 1480.363281 64.070312 1479.351562 54.632812 C 1478.335938 45.195312 1466.917969 40.671875 1466.316406 40.234375 C 1465.710938 39.800781 1462.347656 35.550781 1466.769531 33.226562 C 1471.191406 30.898438 1482.421875 37.59375 1485.003906 43.570312 C 1487.582031 49.546875 1491.371094 59.59375 1485.003906 66.503906 C 1485.003906 66.503906 1479.726562 63.632812 1477.128906 64.058594 C 1474.535156 64.480469 1474.957031 67.082031 1476.605469 67.34375 C 1478.25 67.605469 1482.574219 67.941406 1485.765625 71.179688 C 1488.960938 74.421875 1489.585938 68.417969 1487.855469 67.636719 C 1487.855469 67.636719 1496.890625 54.421875 1495.453125 42.390625 C 1494.015625 30.355469 1497.128906 29.859375 1499.207031 29.507812 C 1501.285156 29.15625 1508.757812 32.210938 1507.910156 46.75 C 1507.0625 61.289062 1496.328125 70.511719 1487.921875 74.558594 C 1479.511719 78.601562 1486.003906 79.140625 1488.433594 77.675781 C 1490.863281 76.214844 1507.253906 65.523438 1513.675781 59.136719 C 1520.097656 52.746094 1527.191406 63.304688 1513.917969 73.484375 Z M 1513.929688 73.484375 " fill-opacity="1" fill-rule="nonzero"/><path fill="#933a1f" d="M 1454.558594 131.214844 C 1454.558594 131.214844 1450.792969 147.320312 1445.132812 158.359375 C 1439.476562 169.394531 1433.371094 187.488281 1418.722656 195.757812 C 1406.582031 202.609375 1398.746094 202.160156 1392.773438 199.976562 C 1392.386719 200.453125 1391.992188 200.90625 1391.578125 201.335938 C 1394.046875 202.113281 1396.574219 202.59375 1399.152344 202.773438 C 1401.734375 202.957031 1404.300781 202.835938 1406.855469 202.410156 C 1409.40625 201.988281 1411.875 201.273438 1414.257812 200.265625 C 1416.644531 199.257812 1418.878906 197.988281 1420.960938 196.457031 C 1437.183594 184.726562 1444.421875 163.8125 1444.421875 163.8125 C 1444.421875 163.8125 1454.257812 142.460938 1455.671875 131.597656 Z M 1454.558594 131.214844 " fill-opacity="1" fill-rule="nonzero"/><path fill="#933a1f" d="M 1398.695312 186.023438 C 1400.214844 186.460938 1401.734375 186.460938 1403.253906 186.023438 C 1409.316406 183.964844 1414.34375 182.074219 1420.339844 173.089844 C 1426.339844 164.105469 1434.777344 147.257812 1437.136719 138.867188 C 1438.558594 133.828125 1439.492188 128.695312 1439.945312 123.476562 L 1437.613281 122.285156 C 1437.613281 122.285156 1433.484375 145.890625 1427.65625 155.914062 C 1421.832031 165.9375 1417.554688 178.90625 1406.984375 182.757812 C 1404.28125 183.730469 1401.511719 184.003906 1398.667969 183.582031 C 1398.746094 184.394531 1398.753906 185.207031 1398.695312 186.023438 Z M 1398.695312 186.023438 " fill-opacity="1" fill-rule="nonzero"/><path fill="#933a1f" d="M 1472.707031 75.972656 C 1472.707031 75.972656 1449.9375 77.03125 1448.058594 101.34375 C 1448.035156 101.34375 1454.167969 80.074219 1472.707031 75.972656 Z M 1472.707031 75.972656 " fill-opacity="1" fill-rule="nonzero"/><path fill="#933a1f" d="M 1009.292969 81.210938 L 1034.957031 100.351562 C 1034.957031 100.351562 1050.65625 111.992188 1054.386719 115.269531 C 1058.117188 118.542969 1060.640625 122.695312 1060.382812 124.253906 C 1060.125 125.808594 1057.632812 131.269531 1059.632812 135.332031 C 1061.628906 139.394531 1072.285156 139.535156 1072.285156 139.535156 C 1072.285156 139.535156 1072.285156 139.535156 1072.285156 139.621094 C 1072.65625 139.621094 1073.023438 139.621094 1073.394531 139.621094 C 1073.894531 139.496094 1074.402344 139.394531 1074.917969 139.308594 C 1076.066406 138.976562 1077.234375 138.730469 1078.417969 138.570312 C 1079.230469 138.207031 1080.058594 137.886719 1080.902344 137.609375 C 1081.320312 137.347656 1081.742188 137.089844 1082.171875 136.851562 L 1082.214844 136.816406 C 1083.140625 136.210938 1084.097656 135.65625 1085.085938 135.15625 C 1086.273438 133.707031 1087.648438 132.453125 1089.203125 131.40625 C 1089.15625 131.226562 1089.128906 131.125 1089.128906 131.125 C 1089.128906 131.125 1093.902344 128.140625 1096.886719 119.59375 C 1099.871094 111.042969 1093.046875 107.230469 1093.046875 107.230469 L 1093.011719 107.339844 C 1093.054688 107.128906 1093.097656 106.925781 1093.132812 106.714844 C 1093.984375 101.515625 1092.324219 95.378906 1091.191406 92.527344 C 1090.058594 89.675781 1084.992188 71.777344 1084.992188 71.777344 C 1084.992188 71.777344 1082.878906 58.652344 1082.699219 56.46875 C 1082.460938 51.523438 1081.46875 46.738281 1079.714844 42.109375 C 1077.09375 35.285156 1071.8125 34.949219 1068.003906 35.390625 C 1065.019531 35.738281 1064.171875 39.058594 1063.945312 40.480469 C 1063.21875 38.964844 1061.015625 36.691406 1054.335938 37.417969 C 1044.574219 38.445312 1035.714844 56.738281 1035.714844 56.738281 C 1035.714844 56.738281 1035.871094 49.296875 1035.851562 42.898438 C 1035.835938 36.496094 1029.34375 33.828125 1029.34375 33.828125 C 1029.34375 33.828125 1024.144531 32.976562 1018.707031 40.085938 C 1013.269531 47.199219 1018.777344 65.699219 1018.777344 65.699219 C 1018.777344 65.699219 1008.8125 61.398438 1004.324219 65.996094 C 999.835938 70.597656 1009.292969 81.210938 1009.292969 81.210938 Z M 1065.851562 58.480469 C 1065.851562 58.480469 1067.773438 66.234375 1067.09375 70.410156 C 1066.410156 74.585938 1061.296875 73.191406 1057.308594 71.472656 C 1053.324219 69.753906 1050.542969 63.960938 1051.222656 59.808594 C 1051.902344 55.65625 1058.300781 52.441406 1058.300781 52.441406 L 1061.761719 50.871094 C 1062.253906 50.636719 1062.664062 50.300781 1062.992188 49.863281 L 1062.882812 50.527344 Z M 1013.84375 66.484375 C 1020.265625 72.875 1036.652344 83.558594 1039.082031 85.027344 C 1041.511719 86.496094 1048 85.953125 1039.59375 81.90625 C 1031.191406 77.863281 1020.425781 68.632812 1019.613281 54.101562 C 1018.800781 39.566406 1026.234375 36.519531 1028.308594 36.859375 C 1030.386719 37.199219 1033.5 37.707031 1032.0625 49.738281 C 1030.625 61.773438 1039.660156 74.988281 1039.660156 74.988281 C 1037.929688 75.769531 1038.558594 81.738281 1041.75 78.53125 C 1044.941406 75.320312 1049.269531 74.949219 1050.917969 74.695312 C 1052.566406 74.4375 1052.984375 71.835938 1050.386719 71.414062 C 1047.789062 70.988281 1042.515625 73.851562 1042.515625 73.851562 C 1036.175781 66.949219 1039.960938 56.898438 1042.542969 50.925781 C 1045.128906 44.953125 1056.359375 38.253906 1060.777344 40.582031 C 1065.195312 42.910156 1061.832031 47.144531 1061.230469 47.585938 C 1060.628906 48.027344 1049.210938 52.550781 1048.195312 61.988281 C 1047.179688 71.425781 1062.347656 76.566406 1062.347656 76.566406 C 1062.347656 76.566406 1063.648438 78.355469 1067.019531 77.335938 C 1070.390625 76.316406 1069.503906 65.476562 1069.582031 61.753906 C 1069.65625 58.03125 1065.460938 47.746094 1066.410156 42.027344 C 1067.359375 36.304688 1070.378906 37.34375 1074.367188 39.042969 C 1078.355469 40.742188 1078.980469 49.929688 1079.785156 58.0625 C 1080.59375 66.191406 1087.132812 88.070312 1090.1875 98.707031 C 1093.246094 109.34375 1084.957031 114.378906 1084.957031 114.378906 C 1084.957031 114.378906 1083.570312 116.289062 1085.042969 117.0625 C 1086.519531 117.839844 1089.820312 114.082031 1089.820312 114.082031 C 1090.761719 113.097656 1091.488281 111.976562 1091.992188 110.710938 C 1094.378906 112.164062 1095.347656 112.882812 1091.574219 122.898438 C 1087.800781 132.914062 1073.777344 137.050781 1067.019531 135.945312 C 1060.265625 134.839844 1062.246094 129.292969 1062.246094 129.292969 C 1065.546875 127.78125 1068.53125 125.792969 1071.199219 123.328125 C 1075.601562 119.253906 1073.585938 115.191406 1070.238281 119.4375 C 1066.890625 123.6875 1063.5 124.734375 1063.5 124.734375 C 1063.5 118.328125 1053.679688 109.792969 1049.429688 106.425781 C 1045.183594 103.0625 1026.882812 91 1013.621094 80.820312 C 1000.359375 70.644531 1007.421875 60.101562 1013.84375 66.484375 Z M 1013.84375 66.484375 " fill-opacity="1" fill-rule="nonzero"/><path fill="#933a1f" d="M 1107.199219 180.460938 C 1113.199219 189.441406 1118.222656 191.332031 1124.285156 193.394531 C 1125.71875 193.8125 1127.160156 193.828125 1128.601562 193.445312 C 1128.46875 192.574219 1128.339844 191.753906 1128.179688 191.058594 C 1125.566406 191.34375 1123.027344 191.039062 1120.554688 190.144531 C 1109.984375 186.277344 1105.714844 173.308594 1099.882812 163.296875 C 1094.050781 153.289062 1089.933594 129.628906 1089.933594 129.628906 L 1087.597656 130.820312 C 1088.050781 136.039062 1088.988281 141.171875 1090.410156 146.210938 C 1092.761719 154.625 1101.207031 171.484375 1107.199219 180.460938 Z M 1107.199219 180.460938 " fill-opacity="1" fill-rule="nonzero"/><path fill="#933a1f" d="M 1134.738281 207.355469 C 1128.769531 209.535156 1120.9375 209.964844 1108.816406 203.125 C 1094.171875 194.859375 1088.058594 176.789062 1082.40625 165.726562 C 1076.753906 154.667969 1072.984375 138.582031 1072.984375 138.582031 L 1071.859375 138.933594 C 1073.273438 149.832031 1083.109375 171.148438 1083.109375 171.148438 C 1083.109375 171.148438 1090.351562 192.066406 1106.574219 203.792969 C 1108.65625 205.328125 1110.890625 206.597656 1113.273438 207.605469 C 1115.65625 208.609375 1118.125 209.324219 1120.675781 209.75 C 1123.230469 210.171875 1125.796875 210.292969 1128.375 210.113281 C 1130.957031 209.929688 1133.480469 209.453125 1135.949219 208.675781 C 1135.488281 208.285156 1135.085938 207.847656 1134.738281 207.355469 Z M 1134.738281 207.355469 " fill-opacity="1" fill-rule="nonzero"/><path fill="#933a1f" d="M 1054.832031 83.339844 C 1054.832031 83.339844 1077.601562 84.40625 1079.480469 108.710938 C 1079.480469 108.710938 1073.371094 87.441406 1054.832031 83.339844 Z M 1054.832031 83.339844 " fill-opacity="1" fill-rule="nonzero"/><path fill="#933a1f" d="M 1181.84375 142.300781 C 1181.84375 142.300781 1202.90625 154.402344 1233.980469 142.300781 C 1232.246094 144.246094 1230.3125 145.96875 1228.179688 147.460938 C 1226.042969 148.957031 1223.761719 150.183594 1221.339844 151.140625 C 1218.917969 152.101562 1216.414062 152.769531 1213.835938 153.140625 C 1211.253906 153.511719 1208.667969 153.582031 1206.070312 153.347656 C 1188.164062 151.773438 1178.164062 145.980469 1176.054688 141.242188 C 1176.054688 141.242188 1175.53125 139.136719 1178.6875 140.191406 C 1178.6875 140.191406 1177.105469 113.871094 1184.484375 103.875 C 1191.859375 93.875 1205.015625 79.664062 1225.550781 89.664062 C 1225.550781 89.664062 1228.183594 91.242188 1227.660156 92.292969 C 1227.132812 93.34375 1221.863281 88.613281 1215.546875 89.136719 C 1209.234375 89.664062 1193.429688 89.664062 1185.007812 111.773438 C 1185.019531 111.773438 1180.808594 124.402344 1181.84375 142.300781 Z M 1181.84375 142.300781 " fill-opacity="1" fill-rule="nonzero"/><path fill="#933a1f" d="M 1333.472656 139.664062 C 1333.472656 139.664062 1312.414062 151.773438 1281.34375 139.664062 C 1283.074219 141.609375 1285.007812 143.332031 1287.144531 144.828125 C 1289.277344 146.320312 1291.558594 147.550781 1293.980469 148.507812 C 1296.40625 149.46875 1298.90625 150.136719 1301.488281 150.507812 C 1304.066406 150.882812 1306.65625 150.953125 1309.25 150.71875 C 1327.15625 149.136719 1337.160156 143.347656 1339.265625 138.613281 C 1339.265625 138.613281 1339.792969 136.507812 1336.632812 137.5625 C 1336.632812 137.5625 1338.214844 111.242188 1330.839844 101.242188 C 1323.460938 91.242188 1310.308594 77.03125 1289.769531 87.03125 C 1289.769531 87.03125 1287.140625 88.613281 1287.664062 89.664062 C 1288.191406 90.710938 1293.453125 85.980469 1299.773438 86.507812 C 1306.09375 87.03125 1321.894531 87.03125 1330.3125 109.136719 C 1330.3125 109.136719 1334.527344 121.769531 1333.472656 139.664062 Z M 1333.472656 139.664062 " fill-opacity="1" fill-rule="nonzero"/><path fill="#933a1f" d="M 1172.894531 92.820312 C 1172.894531 92.820312 1180.789062 66.503906 1198.164062 60.714844 C 1198.164062 60.714844 1211.328125 52.816406 1223.4375 57.03125 C 1235.546875 61.242188 1237.65625 65.976562 1237.128906 67.558594 C 1236.605469 69.140625 1235.546875 69.664062 1232.917969 68.085938 C 1230.285156 66.503906 1215.011719 53.875 1199.746094 65.976562 C 1184.476562 78.082031 1180.789062 80.714844 1173.941406 93.347656 C 1173.960938 93.332031 1173.4375 94.398438 1172.894531 92.820312 Z M 1172.894531 92.820312 " fill-opacity="1" fill-rule="nonzero"/><path fill="#933a1f" d="M 1344.066406 86.621094 C 1344.066406 86.621094 1333.769531 61.144531 1315.929688 56.980469 C 1315.929688 56.980469 1302.097656 50.335938 1290.425781 55.644531 C 1278.757812 60.957031 1277.09375 65.890625 1277.769531 67.386719 C 1278.441406 68.882812 1279.558594 69.335938 1282.007812 67.523438 C 1284.453125 65.710938 1298.527344 51.726562 1314.832031 62.367188 C 1331.136719 73.011719 1335.070312 75.296875 1343.050781 87.242188 C 1343.0625 87.242188 1343.683594 88.242188 1344.066406 86.621094 Z M 1344.066406 86.621094 " fill-opacity="1" fill-rule="nonzero"/><path fill="#933a1f" d="M 1147.109375 228.613281 C 1147.109375 228.613281 1140.265625 224.4375 1140.265625 217.5625 C 1140.265625 217.5625 1150.792969 222.824219 1157.113281 219.140625 C 1157.113281 219.140625 1126.574219 213.351562 1131.3125 184.398438 C 1131.3125 184.398438 1134.46875 185.980469 1140.265625 184.929688 C 1140.265625 184.929688 1104.984375 163.878906 1119.726562 137.03125 C 1119.726562 137.03125 1123.414062 144.929688 1127.621094 146.503906 C 1127.621094 146.503906 1113.40625 113.871094 1138.15625 98.085938 C 1138.15625 98.085938 1138.15625 104.398438 1140.265625 107.558594 C 1140.265625 107.558594 1139.738281 78.609375 1167.640625 71.238281 C 1167.640625 71.238281 1165.007812 78.082031 1166.066406 83.875 C 1166.066406 83.875 1178.175781 43.34375 1212.398438 47.554688 L 1209.238281 51.769531 C 1209.238281 51.769531 1242.414062 26.515625 1259.261719 53.359375 C 1259.261719 53.359375 1255.054688 59.671875 1255.054688 69.675781 C 1255.054688 69.675781 1271.375 14.933594 1314.027344 51.253906 L 1310.863281 44.9375 C 1310.863281 44.9375 1341.402344 47.042969 1347.199219 78.621094 C 1347.84375 74.585938 1347.84375 70.550781 1347.199219 66.515625 C 1347.199219 66.515625 1381.421875 70.203125 1373 109.679688 C 1373 109.679688 1376.683594 107.046875 1378.789062 99.148438 C 1378.789062 99.148438 1405.648438 109.679688 1390.375 141.78125 L 1395.113281 138.097656 C 1395.113281 138.097656 1420.386719 165.464844 1389.324219 182.84375 L 1396.167969 180.738281 C 1396.167969 180.738281 1396.695312 207.582031 1372.476562 211.757812 L 1369.847656 205.453125 C 1369.847656 205.453125 1367.214844 244.402344 1326.671875 227.039062 C 1326.671875 227.039062 1327.730469 229.144531 1332.992188 231.214844 C 1332.992188 231.214844 1322.992188 246.480469 1309.300781 243.847656 L 1311.933594 247.53125 C 1311.933594 247.53125 1328.78125 247.53125 1335.625 233.320312 C 1335.625 233.320312 1364.585938 242.792969 1372.488281 214.898438 C 1372.488281 214.898438 1403.027344 214.898438 1400.390625 179.101562 C 1400.390625 179.101562 1424.613281 157.523438 1397.230469 133.316406 C 1397.230469 133.316406 1409.871094 107 1378.800781 94.886719 C 1378.800781 94.886719 1378.800781 67.523438 1345.628906 62.785156 C 1345.628906 62.785156 1339.308594 42.257812 1307.71875 41.734375 C 1307.71875 41.734375 1287.710938 23.3125 1261.378906 48.574219 C 1261.378906 48.574219 1246.636719 25.417969 1214.515625 44.363281 C 1214.515625 44.363281 1184.507812 36.996094 1169.234375 67 C 1169.234375 67 1146.066406 67.523438 1138.167969 94.363281 C 1138.167969 94.363281 1112.894531 99.625 1119.214844 132.789062 C 1119.214844 132.789062 1098.152344 161.734375 1127.109375 182.265625 C 1127.109375 182.265625 1121.84375 201.738281 1137.113281 215.421875 C 1137.113281 215.421875 1133.957031 225.945312 1145.539062 229.632812 Z M 1147.109375 228.613281 " fill-opacity="1" fill-rule="nonzero"/><path fill="#933a1f" d="M 1170.503906 245.132812 C 1171.242188 243.90625 1172.265625 243.007812 1173.578125 242.441406 C 1169.78125 239.671875 1166.398438 236.46875 1163.433594 232.824219 L 1164.484375 235.457031 C 1148.683594 235.457031 1147.109375 228.613281 1147.109375 228.613281 L 1145.527344 229.667969 C 1150.265625 239.140625 1164.484375 238.085938 1164.484375 238.085938 C 1166.300781 240.597656 1168.308594 242.945312 1170.503906 245.132812 Z M 1170.503906 245.132812 " fill-opacity="1" fill-rule="nonzero"/><path fill="#933a1f" d="M 1309.289062 242.824219 C 1297.179688 260.195312 1276.144531 247.558594 1276.144531 247.558594 C 1275.371094 248.308594 1274.5625 249.015625 1273.714844 249.679688 C 1274.414062 250.636719 1274.957031 251.671875 1275.34375 252.792969 C 1276.210938 252.195312 1276.671875 251.773438 1276.671875 251.773438 C 1294.042969 264.933594 1309.84375 247.558594 1309.84375 247.558594 Z M 1309.289062 242.824219 " fill-opacity="1" fill-rule="nonzero"/><path fill="#933a1f" d="M 1138.683594 153.347656 C 1138.683594 153.347656 1136.574219 179.664062 1158.695312 191.773438 C 1158.695312 191.769531 1126.574219 188.085938 1138.683594 153.347656 Z M 1138.683594 153.347656 " fill-opacity="1" fill-rule="nonzero"/><path fill="#933a1f" d="M 1380.894531 153.347656 C 1380.894531 153.347656 1381.953125 183.351562 1355.621094 188.613281 C 1355.621094 188.613281 1391.429688 189.667969 1380.894531 153.347656 Z M 1380.894531 153.347656 " fill-opacity="1" fill-rule="nonzero"/><path fill="#933a1f" d="M 1219.773438 171.246094 C 1219.773438 171.246094 1226.609375 196.539062 1260.316406 192.824219 C 1294.027344 189.105469 1290.855469 179.136719 1293.488281 171.246094 L 1296.648438 169.664062 C 1296.648438 169.664062 1299.277344 198.085938 1259.792969 198.617188 C 1220.304688 199.148438 1217.65625 171.246094 1217.65625 171.246094 Z M 1219.773438 171.246094 " fill-opacity="1" fill-rule="nonzero"/><path fill="#933a1f" d="M 1284.535156 168.089844 C 1284.535156 168.089844 1286.644531 172.296875 1293.488281 171.246094 C 1300.335938 170.195312 1298.226562 166.507812 1302.441406 170.1875 C 1302.441406 170.1875 1302.96875 166.507812 1298.753906 166.507812 C 1294.539062 166.507812 1292.964844 172.296875 1284.535156 168.089844 Z M 1284.535156 168.089844 " fill-opacity="1" fill-rule="nonzero"/><path fill="#933a1f" d="M 1228.746094 168.089844 C 1228.746094 168.089844 1226.636719 172.296875 1219.792969 171.246094 C 1212.945312 170.195312 1215.054688 166.507812 1210.839844 170.1875 C 1210.839844 170.1875 1210.3125 166.507812 1214.527344 166.507812 C 1218.742188 166.507812 1220.316406 172.296875 1228.746094 168.089844 Z M 1228.746094 168.089844 " fill-opacity="1" fill-rule="nonzero"/><path fill="#933a1f" d="M 1240.335938 204.402344 C 1240.335938 204.402344 1259.289062 218.613281 1277.722656 204.402344 C 1277.691406 204.402344 1260.84375 224.40625 1240.335938 204.402344 Z M 1240.335938 204.402344 " fill-opacity="1" fill-rule="nonzero"/><path fill="#933a1f" d="M 1309.316406 248.074219 L 1310.863281 247.558594 L 1313.949219 247.421875 L 1310.339844 244.402344 L 1309.289062 243.878906 L 1308.757812 244.929688 " fill-opacity="1" fill-rule="nonzero"/></svg>