<svg xmlns="http://www.w3.org/2000/svg" xmlns:xlink="http://www.w3.org/1999/xlink" width="100" zoomAndPan="magnify" viewBox="0 0 75 30.000001" height="40" preserveAspectRatio="xMidYMid meet" version="1.0"><path fill="#267139" d="M 14.257812 18.988281 C 14.257812 18.988281 13.566406 19.949219 12.171875 19.949219 C 10.773438 19.949219 9.589844 19.039062 9.589844 19.039062 C 12.351562 19.039062 14.585938 17.488281 14.585938 13.082031 C 14.585938 8.757812 12.351562 7.105469 9.589844 7.105469 C 6.828125 7.105469 4.605469 8.691406 4.605469 13.082031 C 4.605469 16.464844 5.90625 18.164062 7.765625 18.773438 C 6.792969 19.003906 6.1875 19.863281 6.121094 20.558594 C 6.695312 20.042969 7.304688 19.863281 7.945312 19.980469 C 9.292969 20.375 11.660156 21.894531 13.4375 21.894531 C 14.40625 21.894531 15.277344 21.480469 16.035156 20.6875 Z M 6.777344 13.578125 C 6.480469 12.488281 6.332031 11.480469 6.332031 10.65625 C 6.300781 9.402344 6.660156 8.789062 7.386719 8.773438 C 12.1875 8.59375 12.679688 12.324219 12.679688 15.933594 C 12.679688 16.992188 12.351562 17.765625 11.347656 17.765625 C 8.40625 17.765625 7.371094 15.789062 6.777344 13.578125 Z M 6.777344 13.578125 " fill-opacity="1" fill-rule="nonzero"/><path fill="#267139" d="M 17.367188 9.699219 L 18.859375 8.066406 C 18.859375 8.066406 17.957031 7.601562 17.398438 6.546875 L 15.851562 8.046875 C 15.851562 8.046875 16.347656 9.121094 17.367188 9.699219 Z M 19.058594 18.875 C 18.449219 17.902344 18.433594 17.007812 18.433594 16.925781 L 18.417969 10.421875 L 15.886719 11.582031 C 16.511719 12.089844 16.511719 13.046875 16.511719 13.046875 L 16.511719 16.976562 C 16.511719 17.207031 16.476562 18.164062 15.886719 18.875 Z M 19.058594 18.875 " fill-opacity="1" fill-rule="nonzero"/><path fill="#267139" d="M 22.925781 8.640625 C 22.925781 8.046875 23.484375 7.980469 23.894531 7.980469 C 24.847656 7.980469 25.109375 8.839844 25.109375 8.839844 L 26.753906 6.777344 C 26.589844 6.480469 25.917969 6.199219 25.257812 6.199219 C 24.617188 6.199219 23.945312 6.382812 22.546875 7.785156 C 21.328125 9.003906 21.03125 9.613281 21.03125 10.210938 C 21.03125 10.359375 21.03125 10.507812 21.03125 10.65625 L 20.472656 10.65625 L 20.175781 11.480469 L 21.03125 11.480469 L 21.097656 16.925781 C 21.097656 16.925781 21.097656 18 20.472656 18.875 L 23.664062 18.875 C 23.023438 17.949219 22.925781 16.925781 22.925781 16.925781 C 22.925781 16.925781 22.941406 13.988281 22.941406 11.480469 L 24.945312 11.480469 L 25.242188 10.65625 L 22.941406 10.65625 C 22.925781 9.996094 22.925781 9.320312 22.925781 8.640625 Z M 22.925781 8.640625 " fill-opacity="1" fill-rule="nonzero"/><path fill="#267139" d="M 27.644531 9.699219 L 29.136719 8.066406 C 29.136719 8.066406 28.234375 7.601562 27.675781 6.546875 L 26.128906 8.046875 C 26.128906 8.046875 26.625 9.121094 27.644531 9.699219 Z M 29.335938 18.875 C 28.726562 17.902344 28.710938 17.007812 28.710938 16.925781 L 28.695312 10.421875 L 26.164062 11.582031 C 26.789062 12.089844 26.789062 13.046875 26.789062 13.046875 L 26.789062 16.976562 C 26.789062 17.207031 26.753906 18.164062 26.164062 18.875 Z M 29.335938 18.875 " fill-opacity="1" fill-rule="nonzero"/><path fill="#267139" d="M 33.339844 6.890625 C 33.4375 7.011719 33.457031 7.121094 33.378906 7.273438 C 33.292969 7.421875 32.910156 8.15625 32.910156 8.15625 C 32.710938 7.796875 32.523438 7.429688 32.4375 7.265625 C 32.351562 7.097656 32.371094 7.027344 32.464844 6.890625 L 31.523438 6.890625 C 31.671875 7.027344 31.800781 7.191406 31.886719 7.332031 C 31.96875 7.476562 32.539062 8.449219 32.539062 8.449219 L 32.539062 9.066406 C 32.539062 9.382812 32.535156 9.53125 32.378906 9.6875 L 33.226562 9.6875 C 33.113281 9.511719 33.078125 9.386719 33.078125 9.09375 L 33.078125 8.402344 C 33.078125 8.402344 33.515625 7.621094 33.640625 7.417969 C 33.765625 7.207031 33.894531 7.050781 34.074219 6.890625 Z M 33.339844 6.890625 " fill-opacity="1" fill-rule="nonzero"/><path fill="#267139" d="M 35.042969 7.640625 C 34.515625 7.640625 34.085938 7.917969 34.085938 8.695312 C 34.085938 9.476562 34.515625 9.757812 35.042969 9.757812 C 35.5625 9.757812 35.996094 9.484375 35.996094 8.71875 C 35.996094 8.113281 35.671875 7.640625 35.042969 7.640625 Z M 35.535156 9.269531 C 35.535156 9.429688 35.472656 9.503906 35.371094 9.503906 C 35.070312 9.503906 34.824219 9.386719 34.695312 9.101562 C 34.554688 8.792969 34.507812 8.46875 34.507812 8.128906 C 34.507812 8.003906 34.554688 7.933594 34.675781 7.933594 C 34.976562 7.933594 35.246094 8.011719 35.390625 8.285156 C 35.542969 8.597656 35.535156 8.929688 35.535156 9.269531 Z M 35.535156 9.269531 " fill-opacity="1" fill-rule="nonzero"/><path fill="#267139" d="M 38.050781 7.890625 L 38.050781 7.417969 C 37.734375 7.417969 37.5625 7.632812 37.492188 7.78125 C 37.363281 7.691406 37.199219 7.640625 37.015625 7.640625 C 36.5625 7.640625 36.191406 7.964844 36.191406 8.304688 C 36.191406 8.601562 36.347656 8.832031 36.578125 8.941406 C 36.40625 8.996094 36.136719 9.144531 36.136719 9.3125 C 36.136719 9.4375 36.300781 9.558594 36.78125 9.597656 C 37.703125 9.683594 37.808594 9.867188 37.703125 9.96875 C 37.519531 10.160156 36.902344 10.125 36.691406 9.757812 L 36.238281 10.195312 C 36.355469 10.351562 36.570312 10.484375 36.992188 10.484375 C 37.417969 10.484375 37.933594 10.042969 38.023438 9.707031 C 38.144531 9.265625 37.757812 9.292969 37.277344 9.292969 C 36.808594 9.292969 36.644531 9.210938 36.644531 9.101562 C 36.644531 9.050781 36.664062 9.011719 36.683594 8.984375 C 36.769531 9.015625 36.867188 9.027344 36.972656 9.027344 C 37.433594 9.027344 37.796875 8.855469 37.804688 8.355469 C 37.804688 8.164062 37.722656 7.992188 37.589844 7.863281 C 37.75 7.804688 37.90625 7.8125 38.050781 7.890625 Z M 37.246094 8.78125 C 36.953125 8.78125 36.761719 8.703125 36.65625 8.375 C 36.617188 8.25 36.589844 8.15625 36.589844 8.082031 C 36.589844 7.957031 36.65625 7.894531 36.800781 7.894531 C 37.082031 7.894531 37.234375 8.027344 37.335938 8.363281 C 37.375 8.488281 37.394531 8.582031 37.394531 8.648438 C 37.394531 8.742188 37.351562 8.78125 37.246094 8.78125 Z M 37.246094 8.78125 " fill-opacity="1" fill-rule="nonzero"/><path fill="#267139" d="M 39.800781 9.167969 C 39.800781 8.847656 39.800781 8.582031 39.800781 8.257812 C 39.800781 8.183594 39.792969 7.886719 39.242188 7.667969 C 38.945312 7.554688 38.613281 7.585938 38.386719 7.808594 L 38.578125 8.300781 C 38.695312 8.066406 38.925781 7.867188 39.167969 7.867188 C 39.292969 7.867188 39.320312 8.195312 39.308594 8.285156 C 39.046875 8.414062 38.597656 8.636719 38.25 8.8125 C 38.160156 8.863281 38.125 8.941406 38.125 9.027344 C 38.125 9.3125 38.507812 9.722656 38.753906 9.722656 C 38.972656 9.722656 39.253906 9.441406 39.332031 9.359375 L 39.332031 9.429688 C 39.332031 9.660156 39.511719 9.699219 39.511719 9.699219 L 39.945312 9.511719 C 39.808594 9.402344 39.800781 9.203125 39.800781 9.167969 Z M 38.984375 9.285156 C 38.925781 9.285156 38.867188 9.28125 38.820312 9.269531 C 38.722656 9.25 38.648438 9.128906 38.648438 9.003906 C 38.648438 8.910156 38.6875 8.8125 38.796875 8.746094 C 39.121094 8.546875 39.253906 8.464844 39.3125 8.429688 L 39.332031 9.230469 C 39.257812 9.265625 39.117188 9.285156 38.984375 9.285156 Z M 38.984375 9.285156 " fill-opacity="1" fill-rule="nonzero"/><path fill="#267139" d="M 33.402344 11.488281 C 33.503906 11.660156 33.542969 11.792969 33.542969 12.054688 L 33.542969 13.425781 L 32.207031 11.488281 L 31.660156 11.488281 C 31.753906 11.660156 31.796875 11.792969 31.796875 12.054688 L 31.796875 13.730469 C 31.796875 13.992188 31.753906 14.125 31.660156 14.292969 L 32.273438 14.292969 C 32.179688 14.125 32.128906 13.992188 32.128906 13.730469 L 32.128906 12.382812 L 33.328125 14.050781 C 33.457031 14.253906 33.644531 14.351562 33.882812 14.34375 L 33.882812 12.027344 C 33.882812 11.796875 33.929688 11.660156 34.023438 11.488281 Z M 33.402344 11.488281 " fill-opacity="1" fill-rule="nonzero"/><path fill="#267139" d="M 36.054688 14.082031 C 35.902344 13.945312 35.902344 13.71875 35.902344 13.71875 L 35.902344 12.246094 L 35.285156 12.527344 C 35.4375 12.664062 35.4375 12.890625 35.4375 12.890625 L 35.4375 13.875 C 35.296875 13.929688 35.195312 13.953125 35.101562 13.953125 C 34.707031 13.953125 34.707031 13.589844 34.707031 13.589844 L 34.707031 12.246094 L 34.132812 12.511719 C 34.28125 12.644531 34.28125 12.871094 34.28125 12.871094 L 34.28125 13.84375 C 34.28125 14.035156 34.292969 14.363281 34.742188 14.363281 L 34.75 14.363281 C 35.039062 14.363281 35.367188 14.0625 35.445312 13.988281 L 35.445312 14.335938 C 35.445312 14.335938 36.054688 14.089844 36.054688 14.082031 Z M 36.054688 14.082031 " fill-opacity="1" fill-rule="nonzero"/><path fill="#267139" d="M 36.804688 13.851562 C 36.804688 13.789062 36.804688 12.503906 36.804688 12.503906 L 37.199219 12.503906 L 37.277344 12.300781 L 36.796875 12.300781 L 36.796875 11.828125 L 36.144531 12.503906 L 36.339844 12.503906 C 36.339844 12.503906 36.296875 13.65625 36.289062 13.835938 C 36.285156 14.015625 36.417969 14.363281 36.832031 14.363281 C 37.382812 14.363281 37.539062 14.039062 37.539062 14.039062 C 37.429688 14.082031 36.804688 14.171875 36.804688 13.851562 Z M 36.804688 13.851562 " fill-opacity="1" fill-rule="nonzero"/><path fill="#267139" d="M 38.835938 12.222656 C 38.527344 12.222656 38.28125 12.480469 38.195312 12.578125 L 38.195312 12.214844 L 37.582031 12.496094 C 37.722656 12.609375 37.730469 12.851562 37.730469 12.851562 L 37.730469 13.835938 C 37.730469 13.890625 37.722656 14.128906 37.582031 14.300781 L 38.351562 14.300781 C 38.203125 14.0625 38.199219 13.847656 38.199219 13.828125 L 38.195312 12.707031 C 38.292969 12.667969 38.375 12.648438 38.445312 12.648438 C 38.691406 12.648438 38.789062 12.863281 38.789062 12.863281 L 39.179688 12.371094 C 39.179688 12.371094 39.097656 12.222656 38.835938 12.222656 Z M 38.835938 12.222656 " fill-opacity="1" fill-rule="nonzero"/><path fill="#267139" d="M 39.578125 12.070312 L 39.945312 11.671875 C 39.945312 11.671875 39.722656 11.558594 39.585938 11.300781 L 39.210938 11.667969 C 39.210938 11.667969 39.328125 11.925781 39.578125 12.070312 Z M 39.992188 14.304688 C 39.84375 14.066406 39.839844 13.851562 39.839844 13.828125 L 39.835938 12.246094 L 39.21875 12.527344 C 39.371094 12.652344 39.371094 12.886719 39.371094 12.886719 L 39.371094 13.84375 C 39.371094 13.898438 39.363281 14.128906 39.21875 14.304688 Z M 39.992188 14.304688 " fill-opacity="1" fill-rule="nonzero"/><path fill="#267139" d="M 40.742188 13.851562 C 40.742188 13.789062 40.742188 12.503906 40.742188 12.503906 L 41.136719 12.503906 L 41.210938 12.300781 L 40.734375 12.300781 L 40.734375 11.828125 L 40.082031 12.503906 L 40.277344 12.503906 C 40.277344 12.503906 40.230469 13.65625 40.226562 13.835938 C 40.222656 14.015625 40.355469 14.363281 40.769531 14.363281 C 41.320312 14.363281 41.476562 14.039062 41.476562 14.039062 C 41.367188 14.082031 40.742188 14.171875 40.742188 13.851562 Z M 40.742188 13.851562 " fill-opacity="1" fill-rule="nonzero"/><path fill="#267139" d="M 41.878906 12.070312 L 42.246094 11.671875 C 42.246094 11.671875 42.023438 11.558594 41.886719 11.300781 L 41.511719 11.667969 C 41.511719 11.667969 41.632812 11.925781 41.878906 12.070312 Z M 42.292969 14.304688 C 42.148438 14.066406 42.140625 13.851562 42.140625 13.828125 L 42.136719 12.246094 L 41.523438 12.527344 C 41.675781 12.652344 41.675781 12.886719 41.675781 12.886719 L 41.675781 13.84375 C 41.675781 13.898438 41.664062 14.128906 41.523438 14.304688 Z M 42.292969 14.304688 " fill-opacity="1" fill-rule="nonzero"/><path fill="#267139" d="M 43.375 12.246094 C 42.851562 12.246094 42.421875 12.523438 42.421875 13.300781 C 42.421875 14.082031 42.851562 14.363281 43.375 14.363281 C 43.894531 14.363281 44.328125 14.089844 44.328125 13.324219 C 44.328125 12.71875 44.007812 12.246094 43.375 12.246094 Z M 43.871094 13.875 C 43.871094 14.035156 43.808594 14.109375 43.707031 14.109375 C 43.40625 14.109375 43.160156 13.992188 43.03125 13.707031 C 42.886719 13.398438 42.84375 13.074219 42.84375 12.734375 C 42.84375 12.609375 42.890625 12.539062 43.007812 12.539062 C 43.308594 12.539062 43.582031 12.617188 43.722656 12.890625 C 43.878906 13.203125 43.871094 13.535156 43.871094 13.875 Z M 43.871094 13.875 " fill-opacity="1" fill-rule="nonzero"/><path fill="#267139" d="M 46.421875 14.300781 C 46.285156 14.035156 46.273438 13.882812 46.273438 13.835938 C 46.273438 13.472656 46.269531 13.105469 46.269531 12.746094 C 46.269531 12.378906 46.078125 12.222656 45.800781 12.222656 C 45.53125 12.222656 45.152344 12.527344 45.070312 12.597656 L 45.070312 12.222656 C 45.070312 12.222656 44.464844 12.496094 44.464844 12.503906 C 44.613281 12.640625 44.613281 12.863281 44.613281 12.863281 C 44.613281 13.1875 44.613281 13.511719 44.613281 13.835938 C 44.613281 13.890625 44.605469 14.128906 44.464844 14.300781 L 45.234375 14.300781 C 45.085938 14.0625 45.082031 13.847656 45.082031 13.828125 L 45.070312 12.707031 C 45.207031 12.652344 45.3125 12.628906 45.40625 12.628906 C 45.847656 12.628906 45.847656 12.945312 45.847656 12.945312 C 45.847656 13.234375 45.847656 13.527344 45.847656 13.820312 C 45.847656 13.835938 45.839844 13.945312 45.695312 14.300781 Z M 46.421875 14.300781 " fill-opacity="1" fill-rule="nonzero"/><path fill="#267139" d="M 34.464844 16.558594 C 34.464844 16.558594 34.464844 16.332031 34.609375 16.101562 L 33.976562 16.101562 L 33.230469 18.195312 L 32.207031 16.101562 L 31.660156 16.101562 C 31.761719 16.273438 31.800781 16.402344 31.800781 16.664062 L 31.800781 18.332031 C 31.789062 18.605469 31.773438 18.710938 31.660156 18.898438 L 32.289062 18.898438 C 32.171875 18.722656 32.132812 18.585938 32.132812 18.332031 L 32.132812 17.074219 L 32.765625 18.625 C 32.851562 18.800781 33.011719 18.929688 33.238281 18.917969 L 33.976562 16.996094 L 33.976562 18.4375 C 33.976562 18.597656 33.925781 18.75 33.824219 18.898438 L 34.609375 18.898438 C 34.464844 18.664062 34.464844 18.4375 34.464844 18.4375 Z M 34.464844 16.558594 " fill-opacity="1" fill-rule="nonzero"/><path fill="#267139" d="M 35.089844 16.675781 L 35.457031 16.277344 C 35.457031 16.277344 35.234375 16.164062 35.101562 15.90625 L 34.726562 16.273438 C 34.726562 16.273438 34.84375 16.53125 35.089844 16.675781 Z M 35.503906 18.90625 C 35.359375 18.671875 35.351562 18.457031 35.351562 18.433594 L 35.351562 16.851562 L 34.734375 17.132812 C 34.886719 17.257812 34.886719 17.492188 34.886719 17.492188 L 34.886719 18.449219 C 34.886719 18.503906 34.878906 18.734375 34.734375 18.90625 Z M 35.503906 18.90625 " fill-opacity="1" fill-rule="nonzero"/><path fill="#267139" d="M 37.570312 18.90625 C 37.4375 18.640625 37.425781 18.488281 37.425781 18.441406 C 37.425781 18.078125 37.417969 17.710938 37.417969 17.347656 C 37.417969 16.984375 37.226562 16.828125 36.953125 16.828125 C 36.679688 16.828125 36.300781 17.132812 36.21875 17.203125 L 36.21875 16.828125 C 36.21875 16.828125 35.613281 17.101562 35.613281 17.109375 C 35.761719 17.246094 35.761719 17.464844 35.761719 17.464844 C 35.761719 17.792969 35.761719 18.117188 35.761719 18.441406 C 35.761719 18.496094 35.753906 18.730469 35.613281 18.90625 L 36.382812 18.90625 C 36.234375 18.667969 36.230469 18.449219 36.230469 18.429688 L 36.222656 17.3125 C 36.355469 17.257812 36.464844 17.230469 36.554688 17.230469 C 36.996094 17.230469 36.996094 17.550781 36.996094 17.550781 C 36.996094 17.839844 36.996094 18.132812 36.996094 18.425781 C 36.996094 18.441406 36.988281 18.550781 36.847656 18.90625 Z M 37.570312 18.90625 " fill-opacity="1" fill-rule="nonzero"/><path fill="#267139" d="M 39.574219 18.695312 C 39.421875 18.558594 39.421875 18.332031 39.421875 18.332031 L 39.421875 15.839844 L 38.808594 16.128906 C 38.960938 16.265625 38.960938 16.492188 38.960938 16.492188 L 38.960938 16.976562 C 38.785156 16.894531 38.625 16.859375 38.484375 16.859375 C 37.96875 16.859375 37.699219 17.339844 37.699219 17.941406 C 37.699219 18.410156 37.894531 18.964844 38.289062 18.964844 C 38.527344 18.964844 38.878906 18.679688 38.96875 18.605469 L 38.96875 18.949219 C 38.96875 18.949219 39.574219 18.699219 39.574219 18.695312 Z M 38.964844 18.476562 C 38.898438 18.511719 38.769531 18.542969 38.636719 18.542969 C 38.511719 18.542969 38.390625 18.515625 38.316406 18.425781 C 38.238281 18.324219 38.199219 18.074219 38.199219 17.816406 C 38.199219 17.53125 38.246094 17.242188 38.355469 17.160156 C 38.507812 17.042969 38.796875 17.074219 38.910156 17.257812 C 38.941406 17.304688 38.964844 17.382812 38.964844 17.433594 Z M 38.964844 18.476562 " fill-opacity="1" fill-rule="nonzero"/><path fill="#267139" d="M 40.328125 16.417969 C 40.328125 16.273438 40.460938 16.257812 40.5625 16.257812 C 40.796875 16.257812 40.859375 16.464844 40.859375 16.464844 L 41.257812 15.964844 C 41.222656 15.890625 41.058594 15.820312 40.894531 15.820312 C 40.738281 15.820312 40.578125 15.867188 40.234375 16.210938 C 39.9375 16.503906 39.867188 16.65625 39.867188 16.800781 C 39.867188 16.835938 39.867188 16.871094 39.867188 16.90625 L 39.730469 16.90625 L 39.660156 17.109375 L 39.867188 17.109375 L 39.882812 18.433594 C 39.882812 18.433594 39.882812 18.695312 39.730469 18.90625 L 40.507812 18.90625 C 40.351562 18.683594 40.328125 18.433594 40.328125 18.433594 C 40.328125 18.433594 40.332031 17.71875 40.332031 17.109375 L 40.820312 17.109375 L 40.894531 16.90625 L 40.332031 16.90625 C 40.328125 16.746094 40.328125 16.582031 40.328125 16.417969 Z M 40.328125 16.417969 " fill-opacity="1" fill-rule="nonzero"/><path fill="#267139" d="M 42.84375 18.6875 C 42.691406 18.550781 42.691406 18.324219 42.691406 18.324219 L 42.691406 16.851562 L 42.074219 17.132812 C 42.226562 17.269531 42.226562 17.496094 42.226562 17.496094 L 42.226562 18.476562 C 42.085938 18.535156 41.980469 18.554688 41.890625 18.554688 C 41.496094 18.554688 41.496094 18.195312 41.496094 18.195312 L 41.496094 16.851562 L 40.921875 17.113281 C 41.066406 17.25 41.066406 17.476562 41.066406 17.476562 L 41.066406 18.449219 C 41.066406 18.640625 41.082031 18.96875 41.527344 18.96875 L 41.535156 18.96875 C 41.824219 18.964844 42.152344 18.667969 42.234375 18.59375 L 42.234375 18.941406 C 42.234375 18.941406 42.84375 18.691406 42.84375 18.6875 Z M 42.84375 18.6875 " fill-opacity="1" fill-rule="nonzero"/><path fill="#267139" d="M 42.941406 18.90625 L 43.710938 18.90625 C 43.554688 18.660156 43.546875 18.476562 43.546875 18.433594 L 43.546875 15.808594 C 43.546875 15.808594 42.941406 16.082031 42.941406 16.09375 C 43.09375 16.230469 43.09375 16.449219 43.09375 16.449219 L 43.09375 18.433594 C 43.09375 18.503906 43.09375 18.730469 42.941406 18.90625 Z M 42.941406 18.90625 " fill-opacity="1" fill-rule="nonzero"/><path fill="#267139" d="M 61.453125 16.640625 C 61.472656 16.640625 61.488281 16.640625 61.503906 16.640625 C 61.53125 16.621094 61.558594 16.597656 61.585938 16.570312 C 61.578125 16.574219 61.566406 16.574219 61.550781 16.574219 C 61.484375 16.578125 61.414062 16.570312 61.351562 16.550781 C 61.324219 16.582031 61.296875 16.609375 61.269531 16.632812 C 61.3125 16.632812 61.351562 16.640625 61.394531 16.648438 C 61.414062 16.648438 61.433594 16.644531 61.453125 16.640625 Z M 61.453125 16.640625 " fill-opacity="1" fill-rule="nonzero"/><path fill="#267139" d="M 62.324219 15.839844 C 62.304688 15.910156 62.273438 15.976562 62.230469 16.035156 C 62.671875 16.242188 63.691406 16.878906 62.972656 18.066406 C 62.078125 19.550781 59.382812 19.589844 59.382812 19.589844 C 59.382812 19.589844 57.457031 19.550781 56.179688 19.105469 C 56.179688 19.105469 56.246094 19.414062 55.867188 19.277344 C 55.488281 19.136719 53.96875 18.414062 53.691406 18.480469 C 53.417969 18.546875 52.589844 18.898438 52.484375 18.238281 C 52.484375 18.238281 52.898438 18.238281 53.039062 18.167969 C 53.175781 18.101562 53.347656 17.960938 53.519531 18.03125 C 53.519531 18.03125 53.347656 17.789062 53.074219 17.890625 C 52.796875 17.996094 52.589844 18.167969 52.417969 17.996094 C 52.242188 17.824219 52.347656 17.199219 52.863281 17.128906 C 53.382812 17.058594 53.417969 17.339844 53.417969 17.339844 C 53.417969 17.339844 53.730469 16.574219 54.382812 16.820312 C 55.039062 17.0625 56.074219 17.511719 56.074219 17.511719 C 56.074219 17.511719 55.9375 17.304688 56.074219 17.269531 C 56.210938 17.234375 56.351562 17.164062 56.589844 17.164062 C 56.832031 17.164062 57.351562 17.199219 57.625 17.582031 C 57.902344 17.960938 57.210938 17.582031 57.210938 17.582031 C 57.210938 17.582031 57.453125 18.03125 58.074219 18.132812 C 58.679688 18.234375 61.699219 18.5 61.578125 16.855469 C 61.5625 16.875 61.542969 16.882812 61.519531 16.886719 C 61.507812 16.890625 61.496094 16.890625 61.480469 16.894531 C 61.253906 17.304688 60.453125 18.269531 58.039062 17.855469 C 58.039062 17.855469 57.695312 16.855469 57.039062 16.855469 C 56.382812 16.855469 55.902344 17.304688 55.488281 17.128906 C 55.074219 16.957031 54.140625 16.164062 53.347656 17.027344 C 53.347656 17.027344 52.691406 16.714844 52.382812 17.371094 C 52.070312 18.03125 52.382812 18.136719 52.382812 18.136719 C 52.382812 18.136719 52.242188 18.375 52.484375 18.617188 C 52.726562 18.859375 53.242188 18.792969 53.519531 18.722656 C 53.796875 18.65625 53.933594 18.617188 54.484375 18.898438 C 55.039062 19.171875 55.796875 19.554688 56.558594 19.382812 C 56.558594 19.382812 61.316406 20.871094 63.183594 18.273438 C 63.183594 18.273438 64.535156 16.785156 62.324219 15.839844 Z M 62.324219 15.839844 " fill-opacity="1" fill-rule="nonzero"/><path fill="#267139" d="M 58.222656 19.457031 C 58.179688 19.441406 58.144531 19.414062 58.109375 19.382812 C 57.988281 19.445312 57.882812 19.503906 57.816406 19.53125 C 57.453125 19.707031 57.492188 19.386719 57.492188 19.386719 C 56.257812 19.949219 54.335938 20.152344 54.335938 20.152344 C 54.335938 20.152344 51.652344 20.355469 50.632812 18.949219 C 49.609375 17.546875 51.375 16.765625 51.375 16.765625 C 51.386719 16.785156 51.394531 16.804688 51.40625 16.824219 C 51.441406 16.773438 51.488281 16.734375 51.546875 16.707031 C 51.429688 16.683594 51.355469 16.617188 51.3125 16.511719 C 51.316406 16.539062 51.324219 16.5625 51.324219 16.5625 C 48.863281 17.71875 50.441406 19.175781 50.441406 19.175781 C 52.527344 21.597656 57.136719 19.699219 57.136719 19.699219 C 57.558594 19.757812 57.960938 19.648438 58.328125 19.492188 C 58.292969 19.480469 58.257812 19.46875 58.222656 19.457031 Z M 58.222656 19.457031 " fill-opacity="1" fill-rule="nonzero"/><path fill="#267139" d="M 70.246094 7.65625 C 70.015625 7.417969 69.511719 7.640625 69.511719 7.640625 C 69.511719 7.640625 69.789062 6.695312 69.511719 6.332031 C 69.234375 5.96875 68.972656 6.011719 68.972656 6.011719 C 68.972656 6.011719 68.640625 6.148438 68.640625 6.472656 C 68.636719 6.804688 68.644531 7.183594 68.644531 7.183594 C 68.644531 7.183594 68.195312 6.25 67.699219 6.195312 C 67.355469 6.15625 67.246094 6.273438 67.207031 6.351562 C 67.195312 6.277344 67.15625 6.109375 67 6.089844 C 66.808594 6.066406 66.539062 6.082031 66.40625 6.433594 C 66.316406 6.667969 66.265625 6.914062 66.253906 7.167969 C 66.246094 7.277344 66.136719 7.949219 66.136719 7.949219 C 66.136719 7.949219 65.878906 8.863281 65.820312 9.007812 C 65.765625 9.15625 65.679688 9.46875 65.722656 9.734375 C 65.722656 9.746094 65.726562 9.753906 65.730469 9.765625 L 65.726562 9.761719 C 65.726562 9.761719 65.378906 9.953125 65.53125 10.390625 C 65.683594 10.828125 65.925781 10.980469 65.925781 10.980469 C 65.925781 10.980469 65.925781 10.984375 65.921875 10.996094 C 66 11.050781 66.074219 11.113281 66.132812 11.1875 C 66.183594 11.214844 66.230469 11.242188 66.28125 11.273438 C 66.300781 11.285156 66.324219 11.296875 66.347656 11.3125 C 66.386719 11.324219 66.433594 11.34375 66.472656 11.359375 C 66.53125 11.367188 66.59375 11.382812 66.652344 11.398438 C 66.675781 11.402344 66.703125 11.40625 66.726562 11.414062 C 66.746094 11.414062 66.765625 11.414062 66.785156 11.414062 C 66.785156 11.410156 66.785156 11.410156 66.785156 11.410156 C 66.785156 11.410156 67.328125 11.402344 67.429688 11.195312 C 67.53125 10.988281 67.40625 10.707031 67.390625 10.628906 C 67.375 10.550781 67.503906 10.335938 67.691406 10.167969 C 67.882812 10 68.683594 9.40625 68.683594 9.40625 L 69.988281 8.429688 C 69.988281 8.429688 70.472656 7.890625 70.246094 7.65625 Z M 67.261719 6.863281 L 67.257812 6.832031 C 67.273438 6.851562 67.296875 6.871094 67.320312 6.882812 L 67.496094 6.960938 C 67.496094 6.960938 67.824219 7.125 67.855469 7.339844 C 67.894531 7.550781 67.75 7.847656 67.546875 7.933594 C 67.347656 8.023438 67.085938 8.09375 67.046875 7.882812 C 67.015625 7.667969 67.113281 7.273438 67.113281 7.273438 Z M 69.769531 8.414062 C 69.097656 8.933594 68.164062 9.550781 67.949219 9.722656 C 67.730469 9.894531 67.230469 10.332031 67.230469 10.65625 C 67.230469 10.65625 67.058594 10.601562 66.890625 10.386719 C 66.71875 10.171875 66.617188 10.378906 66.839844 10.585938 C 66.976562 10.710938 67.128906 10.8125 67.296875 10.890625 C 67.296875 10.890625 67.394531 11.175781 67.054688 11.230469 C 66.710938 11.285156 65.996094 11.078125 65.804688 10.5625 C 65.609375 10.046875 65.660156 10.015625 65.78125 9.941406 C 65.808594 10.007812 65.847656 10.0625 65.894531 10.113281 C 65.894531 10.113281 66.058594 10.304688 66.136719 10.265625 C 66.210938 10.226562 66.140625 10.128906 66.140625 10.128906 C 66.140625 10.128906 65.71875 9.871094 65.875 9.328125 C 66.03125 8.785156 66.363281 7.667969 66.40625 7.253906 C 66.445312 6.835938 66.476562 6.367188 66.679688 6.277344 C 66.882812 6.191406 67.039062 6.140625 67.085938 6.433594 C 67.132812 6.726562 66.917969 7.25 66.921875 7.4375 C 66.925781 7.628906 66.882812 8.183594 67.054688 8.234375 C 67.222656 8.289062 67.289062 8.195312 67.289062 8.195312 C 67.289062 8.195312 68.0625 7.933594 68.011719 7.449219 C 67.960938 6.96875 67.378906 6.738281 67.347656 6.71875 C 67.316406 6.695312 67.144531 6.476562 67.371094 6.355469 C 67.597656 6.238281 68.167969 6.582031 68.300781 6.886719 C 68.429688 7.191406 68.625 7.703125 68.300781 8.058594 C 68.300781 8.058594 68.03125 7.910156 67.898438 7.933594 C 67.765625 7.953125 67.789062 8.089844 67.871094 8.101562 C 67.953125 8.113281 68.175781 8.128906 68.335938 8.296875 C 68.5 8.460938 68.53125 8.15625 68.441406 8.117188 C 68.441406 8.117188 68.90625 7.441406 68.832031 6.824219 C 68.757812 6.210938 68.914062 6.1875 69.019531 6.167969 C 69.125 6.152344 69.507812 6.308594 69.464844 7.046875 C 69.421875 7.789062 68.875 8.261719 68.449219 8.46875 C 68.019531 8.675781 68.347656 8.703125 68.472656 8.628906 C 68.597656 8.554688 69.433594 8.007812 69.757812 7.679688 C 70.085938 7.355469 70.445312 7.894531 69.769531 8.414062 Z M 69.769531 8.414062 " fill-opacity="1" fill-rule="nonzero"/><path fill="#267139" d="M 66.75 11.363281 C 66.75 11.363281 66.558594 12.1875 66.269531 12.75 C 65.980469 13.3125 65.671875 14.238281 64.925781 14.660156 C 64.308594 15.011719 63.910156 14.988281 63.605469 14.878906 C 63.585938 14.898438 63.566406 14.925781 63.542969 14.945312 C 63.796875 15.023438 64.058594 15.042969 64.320312 15 C 64.585938 14.957031 64.824219 14.855469 65.039062 14.695312 C 65.867188 14.097656 66.234375 13.027344 66.234375 13.027344 C 66.234375 13.027344 66.734375 11.9375 66.808594 11.382812 Z M 66.75 11.363281 " fill-opacity="1" fill-rule="nonzero"/><path fill="#267139" d="M 63.90625 14.164062 C 63.980469 14.1875 64.058594 14.1875 64.136719 14.164062 C 64.445312 14.058594 64.703125 13.960938 65.007812 13.503906 C 65.3125 13.042969 65.742188 12.183594 65.863281 11.753906 C 65.933594 11.496094 65.980469 11.234375 66.007812 10.96875 L 65.886719 10.90625 C 65.886719 10.90625 65.675781 12.113281 65.378906 12.625 C 65.085938 13.136719 64.867188 13.796875 64.328125 13.996094 C 64.191406 14.046875 64.046875 14.058594 63.902344 14.039062 C 63.910156 14.078125 63.910156 14.121094 63.90625 14.164062 Z M 63.90625 14.164062 " fill-opacity="1" fill-rule="nonzero"/><path fill="#267139" d="M 67.671875 8.539062 C 67.671875 8.539062 66.515625 8.597656 66.417969 9.835938 C 66.417969 9.835938 66.730469 8.753906 67.671875 8.539062 Z M 67.671875 8.539062 " fill-opacity="1" fill-rule="nonzero"/><path fill="#267139" d="M 44.085938 8.808594 L 45.390625 9.785156 C 45.390625 9.785156 46.191406 10.378906 46.382812 10.546875 C 46.570312 10.714844 46.699219 10.929688 46.6875 11.007812 C 46.671875 11.089844 46.546875 11.367188 46.648438 11.574219 C 46.75 11.78125 47.292969 11.789062 47.292969 11.789062 C 47.292969 11.789062 47.292969 11.789062 47.292969 11.792969 C 47.3125 11.792969 47.328125 11.792969 47.347656 11.792969 C 47.371094 11.785156 47.402344 11.78125 47.425781 11.777344 C 47.484375 11.761719 47.542969 11.746094 47.605469 11.738281 C 47.644531 11.722656 47.6875 11.703125 47.730469 11.691406 C 47.75 11.675781 47.773438 11.664062 47.796875 11.652344 L 47.796875 11.648438 C 47.84375 11.617188 47.890625 11.589844 47.941406 11.566406 C 48.003906 11.488281 48.074219 11.425781 48.152344 11.371094 C 48.152344 11.363281 48.148438 11.359375 48.148438 11.359375 C 48.148438 11.359375 48.390625 11.207031 48.546875 10.769531 C 48.695312 10.332031 48.347656 10.136719 48.347656 10.136719 L 48.347656 10.144531 C 48.347656 10.132812 48.351562 10.125 48.355469 10.113281 C 48.394531 9.84375 48.3125 9.53125 48.253906 9.386719 C 48.195312 9.238281 47.941406 8.328125 47.941406 8.328125 C 47.941406 8.328125 47.832031 7.65625 47.824219 7.542969 C 47.808594 7.292969 47.757812 7.046875 47.671875 6.8125 C 47.535156 6.464844 47.265625 6.445312 47.074219 6.46875 C 46.921875 6.484375 46.878906 6.65625 46.867188 6.726562 C 46.832031 6.648438 46.71875 6.535156 46.378906 6.570312 C 45.882812 6.625 45.429688 7.558594 45.429688 7.558594 C 45.429688 7.558594 45.441406 7.179688 45.4375 6.851562 C 45.4375 6.523438 45.105469 6.386719 45.105469 6.386719 C 45.105469 6.386719 44.84375 6.347656 44.566406 6.707031 C 44.285156 7.070312 44.566406 8.015625 44.566406 8.015625 C 44.566406 8.015625 44.0625 7.796875 43.835938 8.03125 C 43.601562 8.265625 44.085938 8.808594 44.085938 8.808594 Z M 46.964844 7.648438 C 46.964844 7.648438 47.0625 8.042969 47.027344 8.257812 C 46.992188 8.46875 46.730469 8.398438 46.527344 8.3125 C 46.324219 8.226562 46.183594 7.925781 46.21875 7.714844 C 46.253906 7.503906 46.582031 7.339844 46.582031 7.339844 L 46.757812 7.261719 C 46.78125 7.246094 46.804688 7.230469 46.820312 7.207031 L 46.816406 7.242188 Z M 44.316406 8.058594 C 44.644531 8.382812 45.476562 8.925781 45.601562 9.003906 C 45.726562 9.078125 46.054688 9.050781 45.628906 8.84375 C 45.199219 8.636719 44.652344 8.167969 44.613281 7.425781 C 44.570312 6.679688 44.949219 6.527344 45.054688 6.542969 C 45.160156 6.5625 45.316406 6.585938 45.246094 7.203125 C 45.171875 7.816406 45.632812 8.488281 45.632812 8.488281 C 45.542969 8.53125 45.574219 8.835938 45.738281 8.671875 C 45.902344 8.507812 46.121094 8.488281 46.203125 8.476562 C 46.285156 8.460938 46.308594 8.332031 46.179688 8.308594 C 46.046875 8.285156 45.777344 8.433594 45.777344 8.433594 C 45.453125 8.082031 45.648438 7.566406 45.777344 7.261719 C 45.910156 6.957031 46.480469 6.613281 46.707031 6.734375 C 46.929688 6.851562 46.757812 7.066406 46.730469 7.089844 C 46.699219 7.113281 46.117188 7.34375 46.066406 7.828125 C 46.015625 8.308594 46.785156 8.570312 46.785156 8.570312 C 46.785156 8.570312 46.855469 8.664062 47.023438 8.609375 C 47.195312 8.558594 47.152344 8.003906 47.152344 7.816406 C 47.160156 7.625 46.945312 7.097656 46.992188 6.804688 C 47.042969 6.515625 47.195312 6.570312 47.398438 6.65625 C 47.601562 6.742188 47.632812 7.210938 47.671875 7.625 C 47.714844 8.042969 48.046875 9.160156 48.203125 9.703125 C 48.359375 10.246094 47.9375 10.503906 47.9375 10.503906 C 47.9375 10.503906 47.867188 10.601562 47.941406 10.640625 C 48.015625 10.679688 48.183594 10.488281 48.183594 10.488281 C 48.230469 10.4375 48.269531 10.378906 48.296875 10.316406 C 48.417969 10.390625 48.464844 10.425781 48.273438 10.9375 C 48.082031 11.449219 47.367188 11.664062 47.023438 11.605469 C 46.679688 11.546875 46.78125 11.265625 46.78125 11.265625 C 46.949219 11.1875 47.101562 11.085938 47.238281 10.960938 C 47.460938 10.75 47.359375 10.542969 47.1875 10.761719 C 47.015625 10.980469 46.84375 11.03125 46.84375 11.03125 C 46.84375 10.707031 46.34375 10.269531 46.128906 10.097656 C 45.910156 9.925781 44.980469 9.308594 44.304688 8.789062 C 43.632812 8.269531 43.988281 7.730469 44.316406 8.058594 Z M 44.316406 8.058594 " fill-opacity="1" fill-rule="nonzero"/><path fill="#267139" d="M 49.070312 13.878906 C 49.375 14.335938 49.632812 14.433594 49.941406 14.539062 C 50.011719 14.5625 50.085938 14.5625 50.160156 14.542969 C 50.152344 14.496094 50.144531 14.457031 50.136719 14.417969 C 50.003906 14.433594 49.875 14.417969 49.75 14.371094 C 49.210938 14.175781 48.992188 13.515625 48.695312 13 C 48.402344 12.492188 48.191406 11.285156 48.191406 11.285156 L 48.070312 11.34375 C 48.09375 11.609375 48.140625 11.871094 48.214844 12.128906 C 48.335938 12.558594 48.765625 13.417969 49.070312 13.878906 Z M 49.070312 13.878906 " fill-opacity="1" fill-rule="nonzero"/><path fill="#267139" d="M 50.46875 15.253906 C 50.167969 15.363281 49.765625 15.386719 49.152344 15.035156 C 48.40625 14.613281 48.09375 13.691406 47.804688 13.125 C 47.519531 12.558594 47.328125 11.742188 47.328125 11.742188 L 47.269531 11.757812 C 47.34375 12.316406 47.84375 13.402344 47.84375 13.402344 C 47.84375 13.402344 48.210938 14.472656 49.035156 15.070312 C 49.253906 15.226562 49.492188 15.332031 49.757812 15.375 C 50.015625 15.417969 50.277344 15.402344 50.53125 15.320312 C 50.507812 15.300781 50.488281 15.277344 50.46875 15.253906 Z M 50.46875 15.253906 " fill-opacity="1" fill-rule="nonzero"/><path fill="#267139" d="M 46.402344 8.917969 C 46.402344 8.917969 47.5625 8.972656 47.660156 10.214844 C 47.660156 10.214844 47.347656 9.128906 46.402344 8.917969 Z M 46.402344 8.917969 " fill-opacity="1" fill-rule="nonzero"/><path fill="#267139" d="M 52.867188 11.929688 C 52.867188 11.929688 53.941406 12.550781 55.523438 11.929688 C 55.34375 12.132812 55.128906 12.28125 54.878906 12.382812 C 54.628906 12.480469 54.371094 12.519531 54.101562 12.492188 C 53.191406 12.414062 52.679688 12.117188 52.574219 11.875 C 52.574219 11.875 52.546875 11.769531 52.707031 11.820312 C 52.707031 11.820312 52.625 10.476562 53.003906 9.96875 C 53.378906 9.453125 54.046875 8.730469 55.09375 9.238281 C 55.09375 9.238281 55.226562 9.320312 55.199219 9.375 C 55.171875 9.429688 54.90625 9.1875 54.585938 9.214844 C 54.261719 9.238281 53.460938 9.238281 53.027344 10.367188 C 53.027344 10.367188 52.816406 11.015625 52.867188 11.929688 Z M 52.867188 11.929688 " fill-opacity="1" fill-rule="nonzero"/><path fill="#267139" d="M 60.585938 11.792969 C 60.585938 11.792969 59.515625 12.414062 57.933594 11.792969 C 58.113281 11.996094 58.328125 12.148438 58.578125 12.25 C 58.828125 12.34375 59.085938 12.382812 59.355469 12.359375 C 60.265625 12.277344 60.773438 11.984375 60.882812 11.742188 C 60.882812 11.742188 60.90625 11.632812 60.75 11.6875 C 60.75 11.6875 60.828125 10.34375 60.453125 9.832031 C 60.078125 9.320312 59.40625 8.597656 58.363281 9.105469 C 58.363281 9.105469 58.230469 9.1875 58.253906 9.238281 C 58.28125 9.296875 58.546875 9.054688 58.871094 9.078125 C 59.191406 9.105469 59.996094 9.105469 60.425781 10.234375 C 60.425781 10.234375 60.640625 10.882812 60.585938 11.792969 Z M 60.585938 11.792969 " fill-opacity="1" fill-rule="nonzero"/><path fill="#267139" d="M 52.414062 9.402344 C 52.414062 9.402344 52.816406 8.058594 53.699219 7.761719 C 53.699219 7.761719 54.371094 7.359375 54.984375 7.574219 C 55.601562 7.789062 55.710938 8.03125 55.683594 8.109375 C 55.65625 8.191406 55.601562 8.21875 55.46875 8.140625 C 55.335938 8.058594 54.554688 7.414062 53.777344 8.03125 C 53.003906 8.648438 52.816406 8.78125 52.46875 9.429688 C 52.46875 9.429688 52.441406 9.484375 52.414062 9.402344 Z M 52.414062 9.402344 " fill-opacity="1" fill-rule="nonzero"/><path fill="#267139" d="M 61.125 9.085938 C 61.125 9.085938 60.601562 7.785156 59.691406 7.570312 C 59.691406 7.570312 58.988281 7.234375 58.394531 7.503906 C 57.800781 7.773438 57.71875 8.027344 57.75 8.101562 C 57.785156 8.179688 57.84375 8.203125 57.96875 8.109375 C 58.089844 8.015625 58.808594 7.300781 59.636719 7.847656 C 60.46875 8.390625 60.667969 8.507812 61.074219 9.117188 C 61.074219 9.117188 61.105469 9.167969 61.125 9.085938 Z M 61.125 9.085938 " fill-opacity="1" fill-rule="nonzero"/><path fill="#267139" d="M 51.101562 16.339844 C 51.101562 16.339844 50.75 16.125 50.75 15.773438 C 50.75 15.773438 51.285156 16.042969 51.609375 15.855469 C 51.609375 15.855469 50.054688 15.558594 50.296875 14.078125 C 50.296875 14.078125 50.457031 14.160156 50.75 14.109375 C 50.75 14.109375 48.957031 13.03125 49.707031 11.660156 C 49.707031 11.660156 49.894531 12.0625 50.109375 12.144531 C 50.109375 12.144531 49.382812 10.476562 50.644531 9.671875 C 50.644531 9.671875 50.644531 9.992188 50.75 10.15625 C 50.75 10.15625 50.726562 8.675781 52.144531 8.300781 C 52.144531 8.300781 52.011719 8.648438 52.066406 8.945312 C 52.066406 8.945312 52.679688 6.875 54.421875 7.089844 L 54.261719 7.304688 C 54.261719 7.304688 55.949219 6.015625 56.808594 7.386719 C 56.808594 7.386719 56.59375 7.710938 56.59375 8.21875 C 56.59375 8.21875 57.425781 5.421875 59.597656 7.28125 L 59.433594 6.957031 C 59.433594 6.957031 60.988281 7.0625 61.285156 8.675781 C 61.316406 8.46875 61.316406 8.265625 61.285156 8.058594 C 61.285156 8.058594 63.027344 8.246094 62.597656 10.261719 C 62.597656 10.261719 62.785156 10.128906 62.894531 9.726562 C 62.894531 9.726562 64.261719 10.261719 63.480469 11.902344 L 63.722656 11.714844 C 63.722656 11.714844 65.011719 13.113281 63.429688 14 L 63.777344 13.894531 C 63.777344 13.894531 63.804688 15.265625 62.570312 15.476562 L 62.4375 15.15625 C 62.4375 15.15625 62.304688 17.144531 60.238281 16.257812 C 60.238281 16.257812 60.292969 16.367188 60.5625 16.472656 C 60.5625 16.472656 60.054688 17.253906 59.355469 17.117188 L 59.488281 17.304688 C 59.488281 17.304688 60.347656 17.304688 60.695312 16.578125 C 60.695312 16.578125 62.171875 17.0625 62.570312 15.636719 C 62.570312 15.636719 64.125 15.636719 63.992188 13.808594 C 63.992188 13.808594 65.226562 12.707031 63.832031 11.46875 C 63.832031 11.46875 64.472656 10.125 62.894531 9.507812 C 62.894531 9.507812 62.894531 8.109375 61.203125 7.867188 C 61.203125 7.867188 60.882812 6.820312 59.277344 6.792969 C 59.277344 6.792969 58.257812 5.851562 56.917969 7.140625 C 56.917969 7.140625 56.164062 5.957031 54.53125 6.925781 C 54.53125 6.925781 53.003906 6.550781 52.226562 8.082031 C 52.226562 8.082031 51.046875 8.109375 50.644531 9.480469 C 50.644531 9.480469 49.359375 9.75 49.679688 11.441406 C 49.679688 11.441406 48.609375 12.921875 50.082031 13.972656 C 50.082031 13.972656 49.816406 14.964844 50.59375 15.667969 C 50.59375 15.667969 50.429688 16.203125 51.019531 16.390625 Z M 51.101562 16.339844 " fill-opacity="1" fill-rule="nonzero"/><path fill="#267139" d="M 52.292969 17.183594 C 52.328125 17.117188 52.382812 17.074219 52.449219 17.046875 C 52.253906 16.902344 52.082031 16.738281 51.929688 16.550781 L 51.984375 16.6875 C 51.179688 16.6875 51.101562 16.339844 51.101562 16.339844 L 51.019531 16.394531 C 51.261719 16.875 51.984375 16.824219 51.984375 16.824219 C 52.074219 16.953125 52.179688 17.070312 52.292969 17.183594 Z M 52.292969 17.183594 " fill-opacity="1" fill-rule="nonzero"/><path fill="#267139" d="M 59.355469 17.066406 C 58.738281 17.953125 57.667969 17.304688 57.667969 17.304688 C 57.628906 17.34375 57.585938 17.378906 57.546875 17.414062 C 57.578125 17.464844 57.605469 17.515625 57.628906 17.574219 C 57.671875 17.542969 57.695312 17.523438 57.695312 17.523438 C 58.578125 18.195312 59.382812 17.304688 59.382812 17.304688 Z M 59.355469 17.066406 " fill-opacity="1" fill-rule="nonzero"/><path fill="#267139" d="M 50.671875 12.492188 C 50.671875 12.492188 50.566406 13.835938 51.691406 14.457031 C 51.691406 14.457031 50.054688 14.269531 50.671875 12.492188 Z M 50.671875 12.492188 " fill-opacity="1" fill-rule="nonzero"/><path fill="#267139" d="M 63 12.492188 C 63 12.492188 63.054688 14.027344 61.710938 14.292969 C 61.710938 14.292969 63.539062 14.351562 63 12.492188 Z M 63 12.492188 " fill-opacity="1" fill-rule="nonzero"/><path fill="#267139" d="M 54.796875 13.40625 C 54.796875 13.40625 55.144531 14.703125 56.863281 14.507812 C 58.578125 14.320312 58.417969 13.8125 58.550781 13.40625 L 58.710938 13.328125 C 58.710938 13.328125 58.84375 14.78125 56.835938 14.808594 C 54.824219 14.832031 54.691406 13.40625 54.691406 13.40625 Z M 54.796875 13.40625 " fill-opacity="1" fill-rule="nonzero"/><path fill="#267139" d="M 58.09375 13.246094 C 58.09375 13.246094 58.203125 13.460938 58.550781 13.40625 C 58.898438 13.355469 58.792969 13.164062 59.007812 13.355469 C 59.007812 13.355469 59.035156 13.164062 58.816406 13.164062 C 58.605469 13.164062 58.523438 13.460938 58.09375 13.246094 Z M 58.09375 13.246094 " fill-opacity="1" fill-rule="nonzero"/><path fill="#267139" d="M 55.257812 13.246094 C 55.257812 13.246094 55.148438 13.460938 54.800781 13.40625 C 54.449219 13.355469 54.558594 13.164062 54.34375 13.355469 C 54.34375 13.355469 54.316406 13.164062 54.53125 13.164062 C 54.746094 13.164062 54.824219 13.460938 55.257812 13.246094 Z M 55.257812 13.246094 " fill-opacity="1" fill-rule="nonzero"/><path fill="#267139" d="M 55.84375 15.101562 C 55.84375 15.101562 56.808594 15.828125 57.75 15.101562 C 57.746094 15.101562 56.890625 16.125 55.84375 15.101562 Z M 55.84375 15.101562 " fill-opacity="1" fill-rule="nonzero"/><path fill="#267139" d="M 59.355469 17.332031 L 59.433594 17.304688 L 59.59375 17.300781 L 59.410156 17.144531 L 59.355469 17.117188 L 59.328125 17.171875 " fill-opacity="1" fill-rule="nonzero"/></svg>