<svg xmlns="http://www.w3.org/2000/svg" xmlns:xlink="http://www.w3.org/1999/xlink" width="100" zoomAndPan="magnify" viewBox="0 0 75 74.999997" height="100" preserveAspectRatio="xMidYMid meet" version="1.0"><defs><g/></defs><path fill="#933a1f" d="M 48.007812 31.265625 C 48.042969 31.261719 48.078125 31.261719 48.117188 31.265625 C 48.175781 31.21875 48.238281 31.167969 48.304688 31.117188 C 48.277344 31.117188 48.25 31.121094 48.226562 31.121094 C 48.074219 31.125 47.921875 31.109375 47.773438 31.070312 C 47.71875 31.132812 47.660156 31.191406 47.597656 31.246094 C 47.6875 31.246094 47.777344 31.257812 47.867188 31.277344 C 47.914062 31.277344 47.960938 31.273438 48.007812 31.265625 Z M 48.007812 31.265625 " fill-opacity="1" fill-rule="nonzero"/><path fill="#933a1f" d="M 49.9375 29.5 C 49.894531 29.652344 49.828125 29.792969 49.734375 29.921875 C 50.722656 30.386719 52.980469 31.792969 51.386719 34.414062 C 49.394531 37.699219 43.402344 37.777344 43.402344 37.777344 C 43.402344 37.777344 39.109375 37.699219 36.265625 36.707031 C 36.265625 36.707031 36.417969 37.394531 35.574219 37.089844 C 34.730469 36.78125 31.351562 35.175781 30.738281 35.328125 C 30.125 35.484375 28.28125 36.246094 28.050781 34.792969 C 28.050781 34.792969 28.972656 34.792969 29.277344 34.640625 C 29.585938 34.488281 29.96875 34.183594 30.355469 34.335938 C 30.355469 34.335938 29.96875 33.800781 29.355469 34.03125 C 28.742188 34.257812 28.28125 34.640625 27.898438 34.257812 C 27.515625 33.875 27.746094 32.5 28.894531 32.347656 C 30.046875 32.195312 30.125 32.804688 30.125 32.804688 C 30.125 32.804688 30.816406 31.121094 32.273438 31.660156 C 33.730469 32.199219 36.035156 33.191406 36.035156 33.191406 C 36.035156 33.191406 35.730469 32.730469 36.035156 32.652344 C 36.34375 32.570312 36.648438 32.421875 37.183594 32.421875 C 37.71875 32.421875 38.875 32.5 39.488281 33.339844 C 40.101562 34.183594 38.566406 33.339844 38.566406 33.339844 C 38.566406 33.339844 39.109375 34.335938 40.484375 34.5625 C 41.828125 34.789062 48.550781 35.371094 48.277344 31.742188 C 48.246094 31.78125 48.203125 31.800781 48.15625 31.808594 C 48.125 31.8125 48.09375 31.816406 48.066406 31.820312 C 47.5625 32.730469 45.78125 34.867188 40.410156 33.953125 C 40.410156 33.953125 39.640625 31.734375 38.183594 31.734375 C 36.722656 31.734375 35.648438 32.730469 34.726562 32.347656 C 33.804688 31.964844 31.734375 30.207031 29.96875 32.117188 C 29.96875 32.117188 28.507812 31.429688 27.816406 32.882812 C 27.125 34.335938 27.816406 34.566406 27.816406 34.566406 C 27.816406 34.566406 27.511719 35.101562 28.046875 35.636719 C 28.585938 36.171875 29.738281 36.019531 30.351562 35.867188 C 30.964844 35.714844 31.273438 35.636719 32.5 36.25 C 33.730469 36.859375 35.417969 37.703125 37.109375 37.320312 C 37.109375 37.320312 47.703125 40.609375 51.847656 34.871094 C 51.851562 34.871094 54.863281 31.585938 49.9375 29.5 Z M 49.9375 29.5 " fill-opacity="1" fill-rule="nonzero"/><path fill="#933a1f" d="M 40.816406 37.488281 C 40.71875 37.453125 40.636719 37.398438 40.566406 37.320312 C 40.289062 37.46875 40.0625 37.589844 39.914062 37.65625 C 39.101562 38.035156 39.191406 37.335938 39.191406 37.335938 C 36.449219 38.574219 32.171875 39.027344 32.171875 39.027344 C 32.171875 39.027344 26.199219 39.472656 23.925781 36.367188 C 21.652344 33.265625 25.582031 31.539062 25.582031 31.539062 C 25.605469 31.585938 25.628906 31.628906 25.652344 31.671875 C 25.730469 31.558594 25.832031 31.472656 25.957031 31.414062 C 25.707031 31.359375 25.535156 31.214844 25.441406 30.976562 C 25.453125 31.042969 25.464844 31.089844 25.464844 31.089844 C 19.988281 33.640625 23.503906 36.867188 23.503906 36.867188 C 28.136719 42.21875 38.402344 38.019531 38.402344 38.019531 C 39.332031 38.148438 40.234375 37.914062 41.046875 37.5625 C 40.96875 37.539062 40.894531 37.515625 40.816406 37.488281 Z M 40.816406 37.488281 " fill-opacity="1" fill-rule="nonzero"/><path fill="#933a1f" d="M 67.566406 11.410156 C 67.054688 10.890625 65.925781 11.378906 65.925781 11.378906 C 65.925781 11.378906 66.550781 9.289062 65.933594 8.484375 C 65.320312 7.683594 64.730469 7.78125 64.730469 7.78125 C 64.730469 7.78125 63.996094 8.082031 63.992188 8.804688 C 63.992188 9.527344 64.007812 10.367188 64.007812 10.367188 C 64.007812 10.367188 63.003906 8.304688 61.898438 8.183594 C 61.140625 8.101562 60.890625 8.355469 60.808594 8.527344 C 60.78125 8.367188 60.6875 7.992188 60.347656 7.953125 C 59.917969 7.902344 59.320312 7.941406 59.023438 8.710938 C 58.824219 9.234375 58.710938 9.773438 58.6875 10.332031 C 58.664062 10.578125 58.425781 12.0625 58.425781 12.0625 C 58.425781 12.0625 57.851562 14.082031 57.722656 14.402344 C 57.59375 14.722656 57.40625 15.417969 57.503906 16.003906 C 57.507812 16.027344 57.511719 16.050781 57.519531 16.074219 L 57.515625 16.0625 C 57.515625 16.0625 56.738281 16.488281 57.078125 17.457031 C 57.417969 18.425781 57.957031 18.757812 57.957031 18.757812 C 57.957031 18.757812 57.957031 18.769531 57.949219 18.789062 C 58.125 18.910156 58.28125 19.050781 58.414062 19.214844 C 58.527344 19.269531 58.636719 19.332031 58.742188 19.402344 L 58.746094 19.402344 C 58.792969 19.429688 58.84375 19.457031 58.890625 19.488281 C 58.984375 19.519531 59.078125 19.554688 59.171875 19.597656 C 59.304688 19.613281 59.4375 19.640625 59.566406 19.679688 C 59.625 19.6875 59.683594 19.699219 59.738281 19.714844 C 59.78125 19.714844 59.824219 19.714844 59.863281 19.714844 C 59.863281 19.707031 59.863281 19.703125 59.863281 19.703125 C 59.863281 19.703125 61.070312 19.6875 61.296875 19.230469 C 61.523438 18.769531 61.242188 18.152344 61.214844 17.980469 C 61.183594 17.804688 61.46875 17.335938 61.890625 16.964844 C 62.308594 16.59375 64.089844 15.28125 64.089844 15.28125 L 66.996094 13.121094 C 66.996094 13.121094 68.070312 11.929688 67.566406 11.410156 Z M 60.933594 9.664062 L 60.921875 9.589844 C 60.957031 9.640625 61.003906 9.679688 61.058594 9.703125 L 61.453125 9.882812 C 61.453125 9.882812 62.175781 10.242188 62.253906 10.710938 C 62.332031 11.179688 62.015625 11.835938 61.5625 12.03125 C 61.113281 12.222656 60.53125 12.378906 60.457031 11.910156 C 60.378906 11.441406 60.597656 10.5625 60.597656 10.5625 Z M 66.511719 13.085938 C 65.007812 14.238281 62.9375 15.597656 62.457031 15.976562 C 61.976562 16.359375 60.863281 17.324219 60.863281 18.042969 C 60.863281 18.042969 60.480469 17.925781 60.097656 17.445312 C 59.71875 16.96875 59.492188 17.425781 59.988281 17.886719 C 60.292969 18.164062 60.628906 18.386719 61.003906 18.558594 C 61.003906 18.558594 61.226562 19.183594 60.464844 19.308594 C 59.699219 19.433594 58.109375 18.972656 57.683594 17.835938 C 57.253906 16.699219 57.363281 16.625 57.636719 16.460938 C 57.691406 16.605469 57.773438 16.730469 57.882812 16.839844 C 57.882812 16.839844 58.253906 17.261719 58.421875 17.175781 C 58.589844 17.09375 58.433594 16.875 58.433594 16.875 C 58.433594 16.875 57.492188 16.304688 57.839844 15.105469 C 58.1875 13.90625 58.925781 11.4375 59.019531 10.519531 C 59.109375 9.601562 59.179688 8.566406 59.632812 8.371094 C 60.082031 8.175781 60.425781 8.0625 60.53125 8.707031 C 60.636719 9.355469 60.164062 10.515625 60.171875 10.933594 C 60.179688 11.355469 60.082031 12.574219 60.464844 12.691406 C 60.847656 12.8125 60.992188 12.605469 60.992188 12.605469 C 60.992188 12.605469 62.710938 12.023438 62.59375 10.960938 C 62.480469 9.894531 61.1875 9.382812 61.117188 9.335938 C 61.050781 9.285156 60.667969 8.804688 61.171875 8.542969 C 61.671875 8.28125 62.941406 9.035156 63.234375 9.710938 C 63.527344 10.386719 63.957031 11.519531 63.234375 12.300781 C 63.234375 12.300781 62.636719 11.976562 62.34375 12.023438 C 62.050781 12.070312 62.097656 12.363281 62.285156 12.394531 C 62.472656 12.425781 62.960938 12.460938 63.320312 12.828125 C 63.683594 13.195312 63.753906 12.515625 63.558594 12.429688 C 63.558594 12.429688 64.582031 10.9375 64.417969 9.578125 C 64.253906 8.21875 64.609375 8.164062 64.84375 8.125 C 65.078125 8.085938 65.925781 8.429688 65.828125 10.070312 C 65.734375 11.710938 64.519531 12.753906 63.566406 13.207031 C 62.613281 13.664062 63.347656 13.726562 63.625 13.5625 C 63.898438 13.394531 65.753906 12.1875 66.480469 11.46875 C 67.210938 10.746094 68.011719 11.9375 66.511719 13.085938 Z M 66.511719 13.085938 " fill-opacity="1" fill-rule="nonzero"/><path fill="#933a1f" d="M 59.789062 19.605469 C 59.789062 19.605469 59.359375 21.421875 58.71875 22.667969 C 58.078125 23.914062 57.386719 25.957031 55.730469 26.890625 C 54.355469 27.660156 53.46875 27.609375 52.789062 27.363281 C 52.746094 27.417969 52.703125 27.46875 52.65625 27.519531 C 53.222656 27.695312 53.800781 27.738281 54.386719 27.640625 C 54.972656 27.542969 55.503906 27.320312 55.984375 26.96875 C 57.820312 25.644531 58.640625 23.28125 58.640625 23.28125 C 58.640625 23.28125 59.753906 20.871094 59.914062 19.648438 Z M 59.789062 19.605469 " fill-opacity="1" fill-rule="nonzero"/><path fill="#933a1f" d="M 53.460938 25.789062 C 53.632812 25.839844 53.804688 25.839844 53.976562 25.789062 C 54.664062 25.558594 55.234375 25.34375 55.914062 24.328125 C 56.589844 23.316406 57.546875 21.414062 57.816406 20.46875 C 57.976562 19.898438 58.082031 19.320312 58.132812 18.730469 L 57.867188 18.597656 C 57.867188 18.597656 57.402344 21.261719 56.742188 22.390625 C 56.082031 23.523438 55.597656 24.988281 54.398438 25.421875 C 54.09375 25.53125 53.78125 25.5625 53.457031 25.515625 C 53.46875 25.605469 53.46875 25.699219 53.460938 25.789062 Z M 53.460938 25.789062 " fill-opacity="1" fill-rule="nonzero"/><path fill="#933a1f" d="M 61.84375 13.367188 C 61.84375 13.367188 59.265625 13.488281 59.050781 16.230469 C 59.046875 16.230469 59.742188 13.832031 61.84375 13.367188 Z M 61.84375 13.367188 " fill-opacity="1" fill-rule="nonzero"/><path fill="#933a1f" d="M 9.363281 13.960938 L 12.269531 16.121094 C 12.269531 16.121094 14.046875 17.433594 14.46875 17.804688 C 14.890625 18.171875 15.175781 18.640625 15.148438 18.816406 C 15.117188 18.992188 14.835938 19.609375 15.0625 20.070312 C 15.289062 20.527344 16.496094 20.542969 16.496094 20.542969 C 16.496094 20.542969 16.496094 20.542969 16.496094 20.550781 C 16.539062 20.550781 16.578125 20.550781 16.621094 20.550781 C 16.679688 20.539062 16.734375 20.527344 16.792969 20.515625 C 16.925781 20.480469 17.054688 20.453125 17.191406 20.433594 C 17.28125 20.394531 17.375 20.355469 17.472656 20.324219 C 17.519531 20.296875 17.566406 20.265625 17.617188 20.238281 L 17.621094 20.234375 C 17.726562 20.167969 17.832031 20.105469 17.945312 20.050781 C 18.082031 19.886719 18.234375 19.742188 18.410156 19.625 C 18.40625 19.605469 18.402344 19.59375 18.402344 19.59375 C 18.402344 19.59375 18.945312 19.257812 19.28125 18.292969 C 19.621094 17.328125 18.847656 16.898438 18.847656 16.898438 L 18.84375 16.910156 C 18.847656 16.886719 18.851562 16.863281 18.855469 16.839844 C 18.953125 16.25 18.765625 15.558594 18.636719 15.238281 C 18.507812 14.914062 17.933594 12.894531 17.933594 12.894531 C 17.933594 12.894531 17.695312 11.414062 17.675781 11.167969 C 17.648438 10.609375 17.535156 10.070312 17.335938 9.546875 C 17.039062 8.777344 16.441406 8.738281 16.011719 8.789062 C 15.671875 8.828125 15.578125 9.203125 15.550781 9.363281 C 15.46875 9.191406 15.21875 8.933594 14.464844 9.015625 C 13.359375 9.132812 12.355469 11.199219 12.355469 11.199219 C 12.355469 11.199219 12.371094 10.359375 12.371094 9.636719 C 12.367188 8.914062 11.632812 8.613281 11.632812 8.613281 C 11.632812 8.613281 11.042969 8.515625 10.429688 9.316406 C 9.8125 10.121094 10.4375 12.207031 10.4375 12.207031 C 10.4375 12.207031 9.308594 11.722656 8.800781 12.242188 C 8.292969 12.761719 9.363281 13.960938 9.363281 13.960938 Z M 15.765625 11.394531 C 15.765625 11.394531 15.984375 12.269531 15.90625 12.742188 C 15.832031 13.210938 15.25 13.054688 14.800781 12.859375 C 14.347656 12.667969 14.035156 12.011719 14.109375 11.542969 C 14.1875 11.074219 14.914062 10.710938 14.914062 10.710938 L 15.304688 10.535156 C 15.359375 10.507812 15.40625 10.472656 15.445312 10.421875 L 15.429688 10.496094 Z M 9.878906 12.296875 C 10.605469 13.019531 12.460938 14.226562 12.734375 14.390625 C 13.011719 14.554688 13.746094 14.496094 12.792969 14.039062 C 11.84375 13.582031 10.621094 12.539062 10.53125 10.898438 C 10.4375 9.257812 11.28125 8.914062 11.515625 8.953125 C 11.75 8.992188 12.105469 9.050781 11.941406 10.40625 C 11.777344 11.765625 12.800781 13.257812 12.800781 13.257812 C 12.605469 13.34375 12.675781 14.019531 13.039062 13.65625 C 13.398438 13.296875 13.890625 13.253906 14.074219 13.222656 C 14.261719 13.195312 14.308594 12.902344 14.015625 12.855469 C 13.722656 12.804688 13.125 13.128906 13.125 13.128906 C 12.40625 12.351562 12.835938 11.214844 13.128906 10.542969 C 13.421875 9.867188 14.691406 9.113281 15.191406 9.375 C 15.691406 9.636719 15.3125 10.113281 15.242188 10.164062 C 15.175781 10.214844 13.882812 10.726562 13.769531 11.789062 C 13.652344 12.855469 15.371094 13.4375 15.371094 13.4375 C 15.371094 13.4375 15.519531 13.636719 15.898438 13.523438 C 16.28125 13.40625 16.179688 12.183594 16.191406 11.765625 C 16.199219 11.34375 15.722656 10.183594 15.832031 9.535156 C 15.9375 8.890625 16.28125 9.007812 16.730469 9.199219 C 17.183594 9.390625 17.253906 10.429688 17.34375 11.347656 C 17.4375 12.265625 18.175781 14.734375 18.523438 15.933594 C 18.871094 17.136719 17.929688 17.703125 17.929688 17.703125 C 17.929688 17.703125 17.773438 17.917969 17.941406 18.007812 C 18.109375 18.09375 18.480469 17.667969 18.480469 17.667969 C 18.589844 17.558594 18.671875 17.433594 18.726562 17.289062 C 19 17.453125 19.109375 17.535156 18.679688 18.664062 C 18.253906 19.796875 16.664062 20.261719 15.898438 20.136719 C 15.132812 20.011719 15.359375 19.386719 15.359375 19.386719 C 15.734375 19.214844 16.070312 18.992188 16.371094 18.714844 C 16.871094 18.253906 16.644531 17.796875 16.265625 18.273438 C 15.886719 18.753906 15.5 18.871094 15.5 18.871094 C 15.5 18.148438 14.390625 17.1875 13.90625 16.804688 C 13.425781 16.425781 11.355469 15.066406 9.851562 13.914062 C 8.351562 12.765625 9.148438 11.578125 9.878906 12.296875 Z M 9.878906 12.296875 " fill-opacity="1" fill-rule="nonzero"/><path fill="#933a1f" d="M 20.449219 25.164062 C 21.128906 26.175781 21.699219 26.390625 22.386719 26.621094 C 22.546875 26.667969 22.710938 26.671875 22.875 26.628906 C 22.859375 26.527344 22.84375 26.4375 22.824219 26.359375 C 22.53125 26.390625 22.242188 26.355469 21.960938 26.253906 C 20.765625 25.820312 20.28125 24.355469 19.621094 23.226562 C 18.960938 22.09375 18.496094 19.425781 18.496094 19.425781 L 18.230469 19.558594 C 18.28125 20.148438 18.386719 20.726562 18.546875 21.296875 C 18.816406 22.246094 19.769531 24.148438 20.449219 25.164062 Z M 20.449219 25.164062 " fill-opacity="1" fill-rule="nonzero"/><path fill="#933a1f" d="M 23.570312 28.199219 C 22.894531 28.445312 22.003906 28.492188 20.632812 27.71875 C 18.972656 26.789062 18.28125 24.746094 17.640625 23.5 C 17.003906 22.25 16.574219 20.433594 16.574219 20.433594 L 16.449219 20.476562 C 16.609375 21.707031 17.722656 24.109375 17.722656 24.109375 C 17.722656 24.109375 18.542969 26.472656 20.378906 27.796875 C 20.859375 28.148438 21.390625 28.371094 21.976562 28.46875 C 22.5625 28.566406 23.140625 28.523438 23.707031 28.347656 C 23.652344 28.304688 23.609375 28.253906 23.570312 28.199219 Z M 23.570312 28.199219 " fill-opacity="1" fill-rule="nonzero"/><path fill="#933a1f" d="M 14.519531 14.199219 C 14.519531 14.199219 17.097656 14.320312 17.3125 17.0625 C 17.3125 17.0625 16.617188 14.664062 14.519531 14.199219 Z M 14.519531 14.199219 " fill-opacity="1" fill-rule="nonzero"/><path fill="#933a1f" d="M 28.902344 20.855469 C 28.902344 20.855469 31.289062 22.222656 34.808594 20.855469 C 34.410156 21.300781 33.933594 21.632812 33.375 21.851562 C 32.820312 22.074219 32.242188 22.15625 31.648438 22.101562 C 29.621094 21.925781 28.488281 21.269531 28.246094 20.734375 C 28.246094 20.734375 28.1875 20.496094 28.546875 20.617188 C 28.546875 20.617188 28.367188 17.644531 29.203125 16.519531 C 30.039062 15.390625 31.527344 13.785156 33.851562 14.914062 C 33.851562 14.914062 34.152344 15.09375 34.089844 15.210938 C 34.03125 15.328125 33.433594 14.796875 32.71875 14.855469 C 32.003906 14.914062 30.214844 14.914062 29.261719 17.410156 C 29.261719 17.410156 28.785156 18.835938 28.902344 20.855469 Z M 28.902344 20.855469 " fill-opacity="1" fill-rule="nonzero"/><path fill="#933a1f" d="M 46.074219 20.558594 C 46.074219 20.558594 43.691406 21.925781 40.171875 20.558594 C 40.570312 21.003906 41.046875 21.335938 41.601562 21.554688 C 42.160156 21.777344 42.734375 21.859375 43.332031 21.804688 C 45.359375 21.625 46.492188 20.972656 46.730469 20.4375 C 46.730469 20.4375 46.789062 20.199219 46.433594 20.320312 C 46.433594 20.320312 46.613281 17.347656 45.777344 16.222656 C 44.941406 15.09375 43.453125 13.488281 41.125 14.617188 C 41.125 14.617188 40.828125 14.796875 40.886719 14.914062 C 40.945312 15.03125 41.542969 14.5 42.257812 14.558594 C 42.972656 14.617188 44.761719 14.617188 45.71875 17.113281 C 45.71875 17.113281 46.195312 18.539062 46.074219 20.558594 Z M 46.074219 20.558594 " fill-opacity="1" fill-rule="nonzero"/><path fill="#933a1f" d="M 27.890625 15.269531 C 27.890625 15.269531 28.785156 12.300781 30.75 11.648438 C 30.75 11.648438 32.242188 10.753906 33.613281 11.230469 C 34.984375 11.707031 35.222656 12.242188 35.164062 12.417969 C 35.105469 12.597656 34.984375 12.65625 34.6875 12.476562 C 34.390625 12.300781 32.660156 10.875 30.929688 12.242188 C 29.203125 13.605469 28.785156 13.902344 28.007812 15.328125 C 28.011719 15.328125 27.949219 15.449219 27.890625 15.269531 Z M 27.890625 15.269531 " fill-opacity="1" fill-rule="nonzero"/><path fill="#933a1f" d="M 47.273438 14.570312 C 47.273438 14.570312 46.109375 11.695312 44.089844 11.226562 C 44.089844 11.226562 42.523438 10.476562 41.199219 11.074219 C 39.878906 11.671875 39.691406 12.230469 39.765625 12.398438 C 39.84375 12.570312 39.96875 12.621094 40.246094 12.414062 C 40.523438 12.210938 42.117188 10.632812 43.964844 11.832031 C 45.808594 13.035156 46.257812 13.292969 47.160156 14.640625 C 47.160156 14.640625 47.230469 14.753906 47.273438 14.570312 Z M 47.273438 14.570312 " fill-opacity="1" fill-rule="nonzero"/><path fill="#933a1f" d="M 24.96875 30.597656 C 24.96875 30.597656 24.195312 30.125 24.195312 29.351562 C 24.195312 29.351562 25.386719 29.945312 26.101562 29.527344 C 26.101562 29.527344 22.644531 28.875 23.179688 25.605469 C 23.179688 25.605469 23.539062 25.785156 24.195312 25.667969 C 24.195312 25.667969 20.199219 23.289062 21.867188 20.261719 C 21.867188 20.261719 22.285156 21.152344 22.761719 21.328125 C 22.761719 21.328125 21.152344 17.644531 23.957031 15.863281 C 23.957031 15.863281 23.957031 16.578125 24.195312 16.933594 C 24.195312 16.933594 24.136719 13.667969 27.292969 12.835938 C 27.292969 12.835938 26.996094 13.605469 27.117188 14.261719 C 27.117188 14.261719 28.488281 9.6875 32.363281 10.160156 L 32.003906 10.636719 C 32.003906 10.636719 35.761719 7.785156 37.671875 10.816406 C 37.671875 10.816406 37.195312 11.527344 37.195312 12.65625 C 37.195312 12.65625 39.042969 6.480469 43.871094 10.578125 L 43.515625 9.867188 C 43.515625 9.867188 46.972656 10.101562 47.628906 13.667969 C 47.703125 13.210938 47.703125 12.757812 47.628906 12.300781 C 47.628906 12.300781 51.503906 12.71875 50.550781 17.171875 C 50.550781 17.171875 50.96875 16.875 51.207031 15.984375 C 51.207031 15.984375 54.25 17.171875 52.519531 20.796875 L 53.054688 20.378906 C 53.054688 20.378906 55.917969 23.46875 52.398438 25.429688 L 53.175781 25.191406 C 53.175781 25.191406 53.234375 28.222656 50.492188 28.695312 L 50.195312 27.984375 C 50.195312 27.984375 49.894531 32.378906 45.304688 30.417969 C 45.304688 30.417969 45.425781 30.65625 46.019531 30.890625 C 46.019531 30.890625 44.886719 32.613281 43.335938 32.316406 L 43.636719 32.730469 C 43.636719 32.730469 45.542969 32.730469 46.320312 31.128906 C 46.320312 31.128906 49.597656 32.199219 50.492188 29.050781 C 50.492188 29.050781 53.953125 29.050781 53.652344 25.007812 C 53.652344 25.007812 56.394531 22.574219 53.296875 19.839844 C 53.296875 19.839844 54.726562 16.871094 51.207031 15.503906 C 51.207031 15.503906 51.207031 12.414062 47.453125 11.878906 C 47.453125 11.878906 46.734375 9.5625 43.15625 9.503906 C 43.15625 9.503906 40.890625 7.425781 37.910156 10.277344 C 37.910156 10.277344 36.242188 7.664062 32.601562 9.800781 C 32.601562 9.800781 29.203125 8.96875 27.476562 12.355469 C 27.476562 12.355469 24.851562 12.414062 23.957031 15.445312 C 23.957031 15.445312 21.09375 16.039062 21.808594 19.78125 C 21.808594 19.78125 19.425781 23.046875 22.703125 25.367188 C 22.703125 25.367188 22.109375 27.5625 23.835938 29.109375 C 23.835938 29.109375 23.480469 30.296875 24.792969 30.710938 Z M 24.96875 30.597656 " fill-opacity="1" fill-rule="nonzero"/><path fill="#933a1f" d="M 27.621094 32.460938 C 27.703125 32.324219 27.820312 32.222656 27.96875 32.15625 C 27.539062 31.84375 27.152344 31.484375 26.816406 31.074219 L 26.9375 31.371094 C 25.148438 31.371094 24.96875 30.597656 24.96875 30.597656 L 24.789062 30.714844 C 25.328125 31.785156 26.9375 31.667969 26.9375 31.667969 C 27.144531 31.949219 27.371094 32.214844 27.621094 32.460938 Z M 27.621094 32.460938 " fill-opacity="1" fill-rule="nonzero"/><path fill="#933a1f" d="M 43.335938 32.199219 C 41.964844 34.160156 39.582031 32.734375 39.582031 32.734375 C 39.496094 32.820312 39.402344 32.898438 39.308594 32.972656 C 39.386719 33.082031 39.449219 33.199219 39.492188 33.324219 C 39.589844 33.257812 39.640625 33.210938 39.640625 33.210938 C 41.609375 34.695312 43.398438 32.734375 43.398438 32.734375 Z M 43.335938 32.199219 " fill-opacity="1" fill-rule="nonzero"/><path fill="#933a1f" d="M 24.015625 22.101562 C 24.015625 22.101562 23.777344 25.070312 26.28125 26.4375 C 26.28125 26.4375 22.644531 26.023438 24.015625 22.101562 Z M 24.015625 22.101562 " fill-opacity="1" fill-rule="nonzero"/><path fill="#933a1f" d="M 51.445312 22.101562 C 51.445312 22.101562 51.566406 25.488281 48.582031 26.082031 C 48.582031 26.082031 52.636719 26.203125 51.445312 22.101562 Z M 51.445312 22.101562 " fill-opacity="1" fill-rule="nonzero"/><path fill="#933a1f" d="M 33.199219 24.121094 C 33.199219 24.121094 33.972656 26.976562 37.789062 26.558594 C 41.609375 26.136719 41.25 25.011719 41.546875 24.121094 L 41.90625 23.945312 C 41.90625 23.945312 42.203125 27.152344 37.730469 27.210938 C 33.257812 27.269531 32.957031 24.121094 32.957031 24.121094 Z M 33.199219 24.121094 " fill-opacity="1" fill-rule="nonzero"/><path fill="#933a1f" d="M 40.53125 23.765625 C 40.53125 23.765625 40.773438 24.242188 41.546875 24.121094 C 42.320312 24.003906 42.082031 23.585938 42.5625 24.003906 C 42.5625 24.003906 42.621094 23.585938 42.144531 23.585938 C 41.664062 23.585938 41.488281 24.242188 40.53125 23.765625 Z M 40.53125 23.765625 " fill-opacity="1" fill-rule="nonzero"/><path fill="#933a1f" d="M 34.214844 23.765625 C 34.214844 23.765625 33.976562 24.242188 33.199219 24.121094 C 32.425781 24.003906 32.664062 23.585938 32.1875 24.003906 C 32.1875 24.003906 32.128906 23.585938 32.605469 23.585938 C 33.082031 23.585938 33.261719 24.242188 34.214844 23.765625 Z M 34.214844 23.765625 " fill-opacity="1" fill-rule="nonzero"/><path fill="#933a1f" d="M 35.527344 27.863281 C 35.527344 27.863281 37.675781 29.46875 39.761719 27.863281 C 39.757812 27.863281 37.851562 30.121094 35.527344 27.863281 Z M 35.527344 27.863281 " fill-opacity="1" fill-rule="nonzero"/><path fill="#933a1f" d="M 43.339844 32.792969 L 43.515625 32.734375 L 43.863281 32.71875 L 43.453125 32.378906 L 43.335938 32.320312 L 43.277344 32.4375 " fill-opacity="1" fill-rule="nonzero"/><g fill="#933a1f" fill-opacity="1"><g transform="translate(6.212185, 63.550166)"><g><path d="M 14.308594 0.1875 C 14.308594 0.1875 13.316406 1.558594 11.308594 1.558594 C 9.304688 1.558594 7.601562 0.257812 7.601562 0.257812 C 11.570312 0.257812 14.78125 -1.960938 14.78125 -8.265625 C 14.78125 -14.449219 11.570312 -16.8125 7.601562 -16.8125 C 3.636719 -16.8125 0.449219 -14.542969 0.449219 -8.265625 C 0.449219 -3.421875 2.3125 -0.992188 4.980469 -0.117188 C 3.589844 0.210938 2.714844 1.441406 2.621094 2.433594 C 3.445312 1.699219 4.320312 1.441406 5.242188 1.605469 C 7.179688 2.171875 10.578125 4.34375 13.128906 4.34375 C 14.519531 4.34375 15.773438 3.753906 16.859375 2.621094 Z M 3.566406 -7.554688 C 3.140625 -9.113281 2.929688 -10.554688 2.929688 -11.734375 C 2.878906 -13.527344 3.398438 -14.402344 4.4375 -14.425781 C 11.332031 -14.6875 12.042969 -9.351562 12.042969 -4.179688 C 12.042969 -2.667969 11.570312 -1.558594 10.128906 -1.558594 C 5.902344 -1.558594 4.414062 -4.390625 3.566406 -7.554688 Z M 3.566406 -7.554688 "/></g></g></g><g fill="#933a1f" fill-opacity="1"><g transform="translate(22.550434, 63.550166)"><g><path d="M 2.433594 -13.105469 L 4.582031 -15.441406 C 4.582031 -15.441406 3.28125 -16.101562 2.480469 -17.613281 L 0.257812 -15.464844 C 0.257812 -15.464844 0.96875 -13.929688 2.433594 -13.105469 Z M 4.863281 0.0234375 C 3.992188 -1.371094 3.964844 -2.644531 3.964844 -2.761719 L 3.941406 -12.066406 L 0.308594 -10.414062 C 1.203125 -9.679688 1.203125 -8.3125 1.203125 -8.3125 L 1.203125 -2.691406 C 1.203125 -2.359375 1.15625 -0.992188 0.308594 0.0234375 Z M 4.863281 0.0234375 "/></g></g></g><g fill="#933a1f" fill-opacity="1"><g transform="translate(28.830804, 63.550166)"><g><path d="M 4.132812 -14.617188 C 4.132812 -15.464844 4.933594 -15.558594 5.523438 -15.558594 C 6.894531 -15.558594 7.273438 -14.332031 7.273438 -14.332031 L 9.632812 -17.285156 C 9.398438 -17.707031 8.429688 -18.109375 7.484375 -18.109375 C 6.5625 -18.109375 5.597656 -17.851562 3.589844 -15.84375 C 1.839844 -14.097656 1.417969 -13.222656 1.417969 -12.371094 C 1.417969 -12.160156 1.417969 -11.949219 1.417969 -11.734375 L 0.613281 -11.734375 L 0.1875 -10.554688 L 1.417969 -10.554688 L 1.511719 -2.761719 C 1.511719 -2.761719 1.511719 -1.226562 0.613281 0.0234375 L 5.195312 0.0234375 C 4.273438 -1.296875 4.132812 -2.761719 4.132812 -2.761719 C 4.132812 -2.761719 4.15625 -6.964844 4.15625 -10.554688 L 7.035156 -10.554688 L 7.460938 -11.734375 L 4.15625 -11.734375 C 4.132812 -12.679688 4.132812 -13.648438 4.132812 -14.617188 Z M 4.132812 -14.617188 "/></g></g></g><g fill="#933a1f" fill-opacity="1"><g transform="translate(37.306909, 63.550166)"><g><path d="M 2.433594 -13.105469 L 4.582031 -15.441406 C 4.582031 -15.441406 3.28125 -16.101562 2.480469 -17.613281 L 0.257812 -15.464844 C 0.257812 -15.464844 0.96875 -13.929688 2.433594 -13.105469 Z M 4.863281 0.0234375 C 3.992188 -1.371094 3.964844 -2.644531 3.964844 -2.761719 L 3.941406 -12.066406 L 0.308594 -10.414062 C 1.203125 -9.679688 1.203125 -8.3125 1.203125 -8.3125 L 1.203125 -2.691406 C 1.203125 -2.359375 1.15625 -0.992188 0.308594 0.0234375 Z M 4.863281 0.0234375 "/></g></g></g><g fill="#933a1f" fill-opacity="1"><g transform="translate(45.404698, 50.440328)"><g><path d="M 2.511719 -4.015625 C 2.65625 -3.839844 2.6875 -3.679688 2.570312 -3.460938 C 2.449219 -3.25 1.898438 -2.203125 1.898438 -2.203125 C 1.609375 -2.714844 1.34375 -3.238281 1.21875 -3.472656 C 1.097656 -3.714844 1.121094 -3.820312 1.257812 -4.015625 L -0.09375 -4.015625 C 0.121094 -3.820312 0.304688 -3.582031 0.425781 -3.382812 C 0.546875 -3.175781 1.363281 -1.78125 1.363281 -1.78125 L 1.363281 -0.898438 C 1.363281 -0.449219 1.355469 -0.234375 1.136719 -0.0117188 L 2.351562 -0.0117188 C 2.191406 -0.257812 2.140625 -0.4375 2.140625 -0.855469 L 2.140625 -1.847656 C 2.140625 -1.847656 2.765625 -2.96875 2.945312 -3.261719 C 3.121094 -3.558594 3.3125 -3.785156 3.566406 -4.015625 Z M 2.511719 -4.015625 "/></g></g></g><g fill="#933a1f" fill-opacity="1"><g transform="translate(48.88387, 50.440328)"><g><path d="M 1.476562 -2.9375 C 0.722656 -2.9375 0.109375 -2.542969 0.109375 -1.425781 C 0.109375 -0.308594 0.722656 0.09375 1.476562 0.09375 C 2.226562 0.09375 2.847656 -0.304688 2.847656 -1.398438 C 2.847656 -2.261719 2.386719 -2.9375 1.476562 -2.9375 Z M 2.191406 -0.609375 C 2.191406 -0.378906 2.097656 -0.269531 1.957031 -0.269531 C 1.523438 -0.269531 1.167969 -0.4375 0.984375 -0.851562 C 0.777344 -1.292969 0.714844 -1.753906 0.714844 -2.238281 C 0.714844 -2.421875 0.78125 -2.519531 0.953125 -2.519531 C 1.386719 -2.519531 1.777344 -2.410156 1.976562 -2.011719 C 2.203125 -1.570312 2.191406 -1.097656 2.191406 -0.609375 Z M 2.191406 -0.609375 "/></g></g></g><g fill="#933a1f" fill-opacity="1"><g transform="translate(51.84548, 50.440328)"><g><path d="M 2.839844 -2.582031 L 2.839844 -3.261719 C 2.378906 -3.261719 2.140625 -2.949219 2.035156 -2.738281 C 1.851562 -2.871094 1.617188 -2.9375 1.351562 -2.9375 C 0.703125 -2.9375 0.167969 -2.472656 0.167969 -1.988281 C 0.167969 -1.5625 0.390625 -1.238281 0.722656 -1.074219 C 0.476562 -1 0.09375 -0.789062 0.09375 -0.546875 C 0.09375 -0.367188 0.328125 -0.195312 1.011719 -0.136719 C 2.339844 -0.015625 2.488281 0.246094 2.339844 0.398438 C 2.074219 0.667969 1.191406 0.617188 0.886719 0.09375 L 0.234375 0.714844 C 0.410156 0.941406 0.714844 1.128906 1.316406 1.128906 C 1.933594 1.128906 2.667969 0.5 2.800781 0.015625 C 2.972656 -0.617188 2.414062 -0.574219 1.726562 -0.574219 C 1.050781 -0.574219 0.816406 -0.695312 0.816406 -0.851562 C 0.816406 -0.921875 0.851562 -0.976562 0.875 -1.019531 C 1 -0.972656 1.136719 -0.953125 1.292969 -0.953125 C 1.949219 -0.953125 2.472656 -1.203125 2.484375 -1.914062 C 2.484375 -2.191406 2.371094 -2.4375 2.179688 -2.621094 C 2.402344 -2.703125 2.628906 -2.691406 2.839844 -2.582031 Z M 1.683594 -1.304688 C 1.265625 -1.304688 0.984375 -1.421875 0.832031 -1.890625 C 0.777344 -2.066406 0.742188 -2.203125 0.742188 -2.304688 C 0.742188 -2.484375 0.832031 -2.578125 1.039062 -2.578125 C 1.449219 -2.578125 1.660156 -2.386719 1.8125 -1.902344 C 1.867188 -1.726562 1.898438 -1.59375 1.898438 -1.496094 C 1.898438 -1.363281 1.835938 -1.304688 1.683594 -1.304688 Z M 1.683594 -1.304688 "/></g></g></g><g fill="#933a1f" fill-opacity="1"><g transform="translate(54.749584, 50.440328)"><g><path d="M 2.449219 -0.753906 C 2.449219 -1.214844 2.449219 -1.59375 2.449219 -2.054688 C 2.449219 -2.164062 2.4375 -2.585938 1.644531 -2.898438 C 1.21875 -3.066406 0.742188 -3.019531 0.414062 -2.695312 L 0.695312 -1.996094 C 0.855469 -2.328125 1.191406 -2.609375 1.535156 -2.609375 C 1.714844 -2.609375 1.753906 -2.144531 1.742188 -2.019531 C 1.363281 -1.835938 0.71875 -1.511719 0.21875 -1.257812 C 0.09375 -1.191406 0.0390625 -1.074219 0.0390625 -0.953125 C 0.0390625 -0.546875 0.59375 0.0390625 0.941406 0.0390625 C 1.257812 0.0390625 1.660156 -0.363281 1.777344 -0.476562 L 1.777344 -0.378906 C 1.777344 -0.0507812 2.03125 0.00390625 2.03125 0.00390625 L 2.65625 -0.257812 C 2.457031 -0.417969 2.449219 -0.703125 2.449219 -0.753906 Z M 1.277344 -0.585938 C 1.191406 -0.585938 1.109375 -0.59375 1.035156 -0.609375 C 0.898438 -0.636719 0.789062 -0.8125 0.789062 -0.988281 C 0.789062 -1.121094 0.851562 -1.257812 1.007812 -1.355469 C 1.472656 -1.644531 1.660156 -1.757812 1.75 -1.8125 L 1.777344 -0.660156 C 1.667969 -0.617188 1.464844 -0.585938 1.277344 -0.585938 Z M 1.277344 -0.585938 "/></g></g></g><g fill="#933a1f" fill-opacity="1"><g transform="translate(45.404698, 57.029658)"><g><path d="M 2.605469 -4.019531 C 2.75 -3.777344 2.804688 -3.589844 2.804688 -3.214844 L 2.804688 -1.253906 L 0.886719 -4.019531 L 0.0976562 -4.019531 C 0.234375 -3.777344 0.300781 -3.589844 0.300781 -3.214844 L 0.300781 -0.816406 C 0.300781 -0.441406 0.234375 -0.253906 0.0976562 -0.0117188 L 0.984375 -0.0117188 C 0.84375 -0.253906 0.777344 -0.441406 0.777344 -0.816406 L 0.777344 -2.742188 L 2.496094 -0.355469 C 2.679688 -0.0625 2.949219 0.0742188 3.296875 0.0625 L 3.296875 -3.25 C 3.296875 -3.582031 3.359375 -3.777344 3.496094 -4.019531 Z M 2.605469 -4.019531 "/></g></g></g><g fill="#933a1f" fill-opacity="1"><g transform="translate(48.993134, 57.029658)"><g><path d="M 2.824219 -0.308594 C 2.605469 -0.507812 2.605469 -0.828125 2.605469 -0.828125 L 2.605469 -2.9375 L 1.71875 -2.535156 C 1.9375 -2.339844 1.9375 -2.019531 1.9375 -2.019531 L 1.9375 -0.609375 C 1.738281 -0.527344 1.585938 -0.5 1.453125 -0.5 C 0.890625 -0.5 0.890625 -1.019531 0.890625 -1.019531 L 0.890625 -2.9375 L 0.0625 -2.558594 C 0.277344 -2.371094 0.277344 -2.042969 0.277344 -2.042969 L 0.277344 -0.65625 C 0.277344 -0.378906 0.292969 0.09375 0.9375 0.09375 L 0.949219 0.09375 C 1.363281 0.0859375 1.835938 -0.339844 1.949219 -0.449219 L 1.949219 0.0507812 C 1.949219 0.0507812 2.824219 -0.304688 2.824219 -0.308594 Z M 2.824219 -0.308594 "/></g></g></g><g fill="#933a1f" fill-opacity="1"><g transform="translate(51.891486, 57.029658)"><g><path d="M 1.007812 -0.644531 C 1.007812 -0.730469 1.007812 -2.570312 1.007812 -2.570312 L 1.570312 -2.570312 L 1.679688 -2.859375 L 0.996094 -2.859375 L 0.996094 -3.535156 L 0.0585938 -2.570312 L 0.332031 -2.570312 C 0.332031 -2.570312 0.269531 -0.921875 0.265625 -0.667969 C 0.257812 -0.410156 0.449219 0.0859375 1.039062 0.0859375 C 1.835938 0.0859375 2.058594 -0.375 2.058594 -0.375 C 1.902344 -0.308594 1.007812 -0.183594 1.007812 -0.644531 Z M 1.007812 -0.644531 "/></g></g></g><g fill="#933a1f" fill-opacity="1"><g transform="translate(53.938734, 57.029658)"><g><path d="M 1.875 -2.972656 C 1.425781 -2.972656 1.074219 -2.605469 0.953125 -2.46875 L 0.953125 -2.984375 L 0.0742188 -2.582031 C 0.277344 -2.414062 0.289062 -2.070312 0.289062 -2.070312 L 0.289062 -0.660156 C 0.289062 -0.585938 0.277344 -0.246094 0.0742188 0 L 1.179688 0 C 0.964844 -0.339844 0.960938 -0.648438 0.960938 -0.679688 L 0.953125 -2.277344 C 1.09375 -2.335938 1.214844 -2.363281 1.3125 -2.363281 C 1.667969 -2.363281 1.804688 -2.058594 1.804688 -2.058594 L 2.371094 -2.761719 C 2.371094 -2.761719 2.25 -2.972656 1.875 -2.972656 Z M 1.875 -2.972656 "/></g></g></g><g fill="#933a1f" fill-opacity="1"><g transform="translate(56.285021, 57.029658)"><g><path d="M 0.59375 -3.191406 L 1.117188 -3.761719 C 1.117188 -3.761719 0.800781 -3.921875 0.605469 -4.289062 L 0.0625 -3.765625 C 0.0625 -3.765625 0.234375 -3.394531 0.59375 -3.191406 Z M 1.183594 0.00390625 C 0.972656 -0.332031 0.964844 -0.644531 0.964844 -0.671875 L 0.960938 -2.9375 L 0.0742188 -2.535156 C 0.292969 -2.359375 0.292969 -2.023438 0.292969 -2.023438 L 0.292969 -0.65625 C 0.292969 -0.574219 0.28125 -0.242188 0.0742188 0.00390625 Z M 1.183594 0.00390625 "/></g></g></g><g fill="#933a1f" fill-opacity="1"><g transform="translate(57.544424, 57.029658)"><g><path d="M 1.007812 -0.644531 C 1.007812 -0.730469 1.007812 -2.570312 1.007812 -2.570312 L 1.570312 -2.570312 L 1.679688 -2.859375 L 0.996094 -2.859375 L 0.996094 -3.535156 L 0.0585938 -2.570312 L 0.332031 -2.570312 C 0.332031 -2.570312 0.269531 -0.921875 0.265625 -0.667969 C 0.257812 -0.410156 0.449219 0.0859375 1.039062 0.0859375 C 1.835938 0.0859375 2.058594 -0.375 2.058594 -0.375 C 1.902344 -0.308594 1.007812 -0.183594 1.007812 -0.644531 Z M 1.007812 -0.644531 "/></g></g></g><g fill="#933a1f" fill-opacity="1"><g transform="translate(59.591672, 57.029658)"><g><path d="M 0.59375 -3.191406 L 1.117188 -3.761719 C 1.117188 -3.761719 0.800781 -3.921875 0.605469 -4.289062 L 0.0625 -3.765625 C 0.0625 -3.765625 0.234375 -3.394531 0.59375 -3.191406 Z M 1.183594 0.00390625 C 0.972656 -0.332031 0.964844 -0.644531 0.964844 -0.671875 L 0.960938 -2.9375 L 0.0742188 -2.535156 C 0.292969 -2.359375 0.292969 -2.023438 0.292969 -2.023438 L 0.292969 -0.65625 C 0.292969 -0.574219 0.28125 -0.242188 0.0742188 0.00390625 Z M 1.183594 0.00390625 "/></g></g></g><g fill="#933a1f" fill-opacity="1"><g transform="translate(60.851076, 57.029658)"><g><path d="M 1.476562 -2.9375 C 0.722656 -2.9375 0.109375 -2.542969 0.109375 -1.425781 C 0.109375 -0.308594 0.722656 0.09375 1.476562 0.09375 C 2.226562 0.09375 2.847656 -0.304688 2.847656 -1.398438 C 2.847656 -2.261719 2.386719 -2.9375 1.476562 -2.9375 Z M 2.191406 -0.609375 C 2.191406 -0.378906 2.097656 -0.269531 1.957031 -0.269531 C 1.523438 -0.269531 1.167969 -0.4375 0.984375 -0.851562 C 0.777344 -1.292969 0.714844 -1.753906 0.714844 -2.238281 C 0.714844 -2.421875 0.78125 -2.519531 0.953125 -2.519531 C 1.386719 -2.519531 1.777344 -2.410156 1.976562 -2.011719 C 2.203125 -1.570312 2.191406 -1.097656 2.191406 -0.609375 Z M 2.191406 -0.609375 "/></g></g></g><g fill="#933a1f" fill-opacity="1"><g transform="translate(63.812686, 57.029658)"><g><path d="M 2.894531 0 C 2.695312 -0.378906 2.679688 -0.597656 2.679688 -0.660156 C 2.679688 -1.183594 2.675781 -1.707031 2.675781 -2.226562 C 2.675781 -2.75 2.398438 -2.972656 2 -2.972656 C 1.609375 -2.972656 1.070312 -2.535156 0.949219 -2.433594 L 0.949219 -2.972656 C 0.949219 -2.972656 0.0820312 -2.582031 0.0820312 -2.570312 C 0.292969 -2.375 0.292969 -2.058594 0.292969 -2.058594 C 0.292969 -1.59375 0.292969 -1.128906 0.292969 -0.660156 C 0.292969 -0.585938 0.28125 -0.246094 0.0820312 0 L 1.183594 0 C 0.972656 -0.339844 0.964844 -0.648438 0.964844 -0.679688 L 0.953125 -2.277344 C 1.144531 -2.359375 1.300781 -2.390625 1.433594 -2.390625 C 2.066406 -2.390625 2.066406 -1.9375 2.066406 -1.9375 C 2.066406 -1.523438 2.066406 -1.105469 2.066406 -0.683594 C 2.066406 -0.660156 2.054688 -0.507812 1.851562 0 Z M 2.894531 0 "/></g></g></g><g fill="#933a1f" fill-opacity="1"><g transform="translate(45.404698, 63.618988)"><g><path d="M 4.128906 -3.359375 C 4.128906 -3.359375 4.128906 -3.679688 4.339844 -4.015625 L 3.425781 -4.015625 L 2.359375 -1.011719 L 0.886719 -4.015625 L 0.0976562 -4.015625 C 0.246094 -3.765625 0.304688 -3.582031 0.304688 -3.207031 L 0.304688 -0.816406 C 0.289062 -0.429688 0.265625 -0.277344 0.0976562 -0.0117188 L 1.007812 -0.0117188 C 0.839844 -0.265625 0.78125 -0.460938 0.78125 -0.816406 L 0.78125 -2.621094 L 1.691406 -0.402344 C 1.8125 -0.148438 2.042969 0.0351562 2.371094 0.015625 L 3.425781 -2.730469 L 3.425781 -0.667969 C 3.425781 -0.4375 3.351562 -0.21875 3.207031 -0.0117188 L 4.339844 -0.0117188 C 4.128906 -0.34375 4.128906 -0.667969 4.128906 -0.667969 Z M 4.128906 -3.359375 "/></g></g></g><g fill="#933a1f" fill-opacity="1"><g transform="translate(49.844238, 63.618988)"><g><path d="M 0.59375 -3.191406 L 1.117188 -3.761719 C 1.117188 -3.761719 0.800781 -3.921875 0.605469 -4.289062 L 0.0625 -3.765625 C 0.0625 -3.765625 0.234375 -3.394531 0.59375 -3.191406 Z M 1.183594 0.00390625 C 0.972656 -0.332031 0.964844 -0.644531 0.964844 -0.671875 L 0.960938 -2.9375 L 0.0742188 -2.535156 C 0.292969 -2.359375 0.292969 -2.023438 0.292969 -2.023438 L 0.292969 -0.65625 C 0.292969 -0.574219 0.28125 -0.242188 0.0742188 0.00390625 Z M 1.183594 0.00390625 "/></g></g></g><g fill="#933a1f" fill-opacity="1"><g transform="translate(51.103641, 63.618988)"><g><path d="M 2.894531 0 C 2.695312 -0.378906 2.679688 -0.597656 2.679688 -0.660156 C 2.679688 -1.183594 2.675781 -1.707031 2.675781 -2.226562 C 2.675781 -2.75 2.398438 -2.972656 2 -2.972656 C 1.609375 -2.972656 1.070312 -2.535156 0.949219 -2.433594 L 0.949219 -2.972656 C 0.949219 -2.972656 0.0820312 -2.582031 0.0820312 -2.570312 C 0.292969 -2.375 0.292969 -2.058594 0.292969 -2.058594 C 0.292969 -1.59375 0.292969 -1.128906 0.292969 -0.660156 C 0.292969 -0.585938 0.28125 -0.246094 0.0820312 0 L 1.183594 0 C 0.972656 -0.339844 0.964844 -0.648438 0.964844 -0.679688 L 0.953125 -2.277344 C 1.144531 -2.359375 1.300781 -2.390625 1.433594 -2.390625 C 2.066406 -2.390625 2.066406 -1.9375 2.066406 -1.9375 C 2.066406 -1.523438 2.066406 -1.105469 2.066406 -0.683594 C 2.066406 -0.660156 2.054688 -0.507812 1.851562 0 Z M 2.894531 0 "/></g></g></g><g fill="#933a1f" fill-opacity="1"><g transform="translate(54.065251, 63.618988)"><g><path d="M 2.804688 -0.300781 C 2.585938 -0.496094 2.585938 -0.816406 2.585938 -0.816406 L 2.585938 -4.382812 L 1.707031 -3.972656 C 1.925781 -3.777344 1.925781 -3.457031 1.925781 -3.457031 L 1.925781 -2.761719 C 1.671875 -2.875 1.445312 -2.925781 1.242188 -2.925781 C 0.5 -2.925781 0.113281 -2.242188 0.113281 -1.375 C 0.113281 -0.707031 0.398438 0.0859375 0.960938 0.0859375 C 1.304688 0.0859375 1.804688 -0.320312 1.9375 -0.429688 L 1.9375 0.0625 C 1.9375 0.0625 2.804688 -0.292969 2.804688 -0.300781 Z M 1.933594 -0.609375 C 1.835938 -0.5625 1.652344 -0.515625 1.460938 -0.515625 C 1.28125 -0.515625 1.105469 -0.558594 1 -0.683594 C 0.890625 -0.828125 0.832031 -1.191406 0.832031 -1.558594 C 0.832031 -1.964844 0.902344 -2.378906 1.058594 -2.496094 C 1.277344 -2.664062 1.691406 -2.621094 1.851562 -2.359375 C 1.898438 -2.289062 1.933594 -2.179688 1.933594 -2.105469 Z M 1.933594 -0.609375 "/></g></g></g><g fill="#933a1f" fill-opacity="1"><g transform="translate(56.946352, 63.618988)"><g><path d="M 1.007812 -3.558594 C 1.007812 -3.765625 1.203125 -3.789062 1.34375 -3.789062 C 1.679688 -3.789062 1.769531 -3.492188 1.769531 -3.492188 L 2.347656 -4.210938 C 2.289062 -4.3125 2.054688 -4.410156 1.824219 -4.410156 C 1.597656 -4.410156 1.363281 -4.347656 0.875 -3.859375 C 0.449219 -3.433594 0.34375 -3.21875 0.34375 -3.011719 C 0.34375 -2.960938 0.34375 -2.910156 0.34375 -2.859375 L 0.148438 -2.859375 L 0.046875 -2.570312 L 0.34375 -2.570312 L 0.367188 -0.671875 C 0.367188 -0.671875 0.367188 -0.300781 0.148438 0.00390625 L 1.265625 0.00390625 C 1.039062 -0.316406 1.007812 -0.671875 1.007812 -0.671875 C 1.007812 -0.671875 1.011719 -1.695312 1.011719 -2.570312 L 1.714844 -2.570312 L 1.816406 -2.859375 L 1.011719 -2.859375 C 1.007812 -3.089844 1.007812 -3.324219 1.007812 -3.558594 Z M 1.007812 -3.558594 "/></g></g></g><g fill="#933a1f" fill-opacity="1"><g transform="translate(58.74057, 63.618988)"><g><path d="M 2.824219 -0.308594 C 2.605469 -0.507812 2.605469 -0.828125 2.605469 -0.828125 L 2.605469 -2.9375 L 1.71875 -2.535156 C 1.9375 -2.339844 1.9375 -2.019531 1.9375 -2.019531 L 1.9375 -0.609375 C 1.738281 -0.527344 1.585938 -0.5 1.453125 -0.5 C 0.890625 -0.5 0.890625 -1.019531 0.890625 -1.019531 L 0.890625 -2.9375 L 0.0625 -2.558594 C 0.277344 -2.371094 0.277344 -2.042969 0.277344 -2.042969 L 0.277344 -0.65625 C 0.277344 -0.378906 0.292969 0.09375 0.9375 0.09375 L 0.949219 0.09375 C 1.363281 0.0859375 1.835938 -0.339844 1.949219 -0.449219 L 1.949219 0.0507812 C 1.949219 0.0507812 2.824219 -0.304688 2.824219 -0.308594 Z M 2.824219 -0.308594 "/></g></g></g><g fill="#933a1f" fill-opacity="1"><g transform="translate(61.638922, 63.618988)"><g><path d="M 0.0703125 0.00390625 L 1.171875 0.00390625 C 0.949219 -0.351562 0.9375 -0.617188 0.9375 -0.671875 L 0.9375 -4.429688 C 0.9375 -4.429688 0.0703125 -4.035156 0.0703125 -4.027344 C 0.28125 -3.828125 0.28125 -3.511719 0.28125 -3.511719 L 0.28125 -0.671875 C 0.28125 -0.574219 0.28125 -0.253906 0.0703125 0.00390625 Z M 0.0703125 0.00390625 "/></g></g></g></svg>